<?xml version="1.0" encoding="utf-8"?>
<!-- Generator: Adobe Illustrator 24.0.3, SVG Export Plug-In . SVG Version: 6.00 Build 0)  -->
<svg version="1.1" xmlns="http://www.w3.org/2000/svg" xmlns:xlink="http://www.w3.org/1999/xlink" x="0px" y="0px"
	 viewBox="0 0 1216.9 453.2" style="enable-background:new 0 0 1216.9 453.2;" xml:space="preserve">
<style type="text/css">
	.st0{fill:#082287;}
	.st1{fill:#FFC846;}
	.st2{fill:#1F43D1;}
	.st3{fill:#4066FF;}
	.st4{display:none;}
	.st5{display:inline;fill:#1C5E99;}
	.st6{display:inline;}
	.st7{display:inline;fill:none;}
	.st8{fill:#231F20;}
	.st9{font-family:'DINAlternate-Bold';}
	.st10{font-size:135px;}
	.st11{letter-spacing:10;}
	.st12{display:inline;fill:#231F20;}
	.st13{fill:#1C5E99;}
	.st14{display:inline;fill:#FFFFFF;}
	.st15{fill:#FFFFFF;}
	.st16{display:inline;fill:#383838;}
	.st17{display:inline;fill:#6D6D6D;}
	.st18{fill:#6D6D6D;}
	.st19{display:inline;fill:#595959;}
	.st20{fill:#383838;}
</style>
<g id="Original_colors">
	<path class="st0" d="M203.8,14.8l-46.3,29C135.6,54.1,115.8,68,98.6,85.2c-19.1,19.1-34,41.3-44.5,66C43.2,176.8,37.8,204,37.8,232
		c0,1.5,0,3.1,0,4.6c-4.5,2.4-8.9,5-13.2,7.7c-0.2-4.1-0.3-8.2-0.3-12.4C24.3,124.1,101.6,34.3,203.8,14.8z"/>
	<path class="st0" d="M466.5,230.5c-4.1-1.4-8.7-2.5-13.5-3.2c-0.6-26.4-6.1-51.9-16.3-76c-10.2-24.1-24.6-45.7-43-64.5l-9.1-26.5
		C434.2,100.5,466.1,161.8,466.5,230.5z"/>
	<path class="st1" d="M359.8,226.3c-1.2,3.3-4.4,8.9-9.6,15.4c-15.2,2.6-29.6,4.5-39.9,4.5c-35.2,0-61.8-5.8-90.6-12.8
		c-40-9.2-61.4-12.9-76.2-14.4c-11.7-31.5-10.3-62.6-7.1-71.7c0,0,78.1,33,110,44.2C278.3,202.8,359.8,226.3,359.8,226.3z"/>
	<g>
		<path class="st1" d="M421.7,207.4l-0.1,0.5c-0.6,2.5-4.8,11.1-10.4,15.9c-4.7,4-8.7,6.7-10.3,7l-0.2,0
			c-2.2,0-116.6-33.6-151.9-46.1c-34-12-146-58.1-147.3-59.7c-1.1-1.2-2.5-5.9-3.6-11.9c-1.4-7.3,0.8-16.6,1.9-18.9
			c0.2-0.4,0.6-0.7,1.1-0.7c0.9,0,3,1,10.9,4.9c4,2,8.6,4.2,13.3,6.4c13.8,6.4,100.7,41.1,133.4,52.6
			c32.7,11.6,122.1,39.2,136.8,42.8c5,1.2,10,2.4,14.4,3.3c10.7,2.4,11.4,2.6,11.9,3.4L421.7,207.4z"/>
	</g>
	<g>
		<path class="st1" d="M409.3,197.6c-0.2,0.2-0.5,0.3-0.8,0.3c-0.1,0-0.2,0-0.3,0c-0.8-0.2-83.4-23.8-146.6-46.1
			c-63.1-22.3-142.2-55.8-143-56.1c-0.4-0.2-0.6-0.5-0.7-0.9c0-0.4,0.2-0.8,0.5-1l91-61.3c0.3-0.2,0.7-0.2,1-0.1
			c0,0,70.5,24.9,83.1,29.4l83.1,29.3c0.3,0.1,0.6,0.4,0.7,0.7l32.3,104.9C409.7,196.9,409.6,197.3,409.3,197.6z"/>
	</g>
	<g>
		<path class="st1" d="M378.7,85.1c-0.2,0.2-0.5,0.3-0.8,0.3c-0.1,0-0.2,0-0.3-0.1l-71.6-25.3c-0.3-0.1-0.5-0.3-0.6-0.6
			c-0.1-0.3-0.1-0.6,0-0.9c0,0,1.5-3.6,0-7.2c-1.1-2.5-3.5-4.5-7.2-5.8c-1.8-0.6-3.5-1-5.1-1c-6.7,0-8.6,6.2-8.7,6.5
			c-0.1,0.3-0.3,0.5-0.5,0.7c-0.3,0.1-0.6,0.2-0.8,0.1l-71.6-25.3c-0.4-0.1-0.7-0.5-0.7-0.9c0-0.4,0.1-0.8,0.5-1l39.2-24.6
			c0.3-0.2,0.6-0.2,0.9-0.1l112,39.6c0.3,0.1,0.5,0.3,0.7,0.7l15,43.7C379,84.4,378.9,84.8,378.7,85.1z"/>
	</g>
	<path class="st2" d="M482.4,265.6c-0.9,0.4-2.5,0.8-4.7,1.2c-2,0.4-4.4,0.9-7,1.6c-2.1-2.1-4.8-3.4-7.5-3.4c-1.7,0-3.3,0.4-4.7,1.2
		c-2.2-1.8-5-2.8-8.1-2.8c-3.9,0-7.6,1.9-10,4.9c-1.2,1.7-2.3,3.7-2.7,4.3c-3.9,7.1-7.9,13.6-12.5,20.1c-6.4,4.2-12.5,8.3-17.7,11.9
		c-5.7,3.8-10.5,7.1-13.8,9.2c-7,4.4-16.2,8.5-26.4,12.1c0.8-2.9,1.3-5.9,1.4-9c0-0.2,0-0.4,0-0.6c0-0.2,0-0.5,0-0.7
		c-0.2-5.8-3.7-10.9-9.2-13c-1.6-0.7-3.3-1-5-1c-4.9,0-8.5,2.7-9.8,3.7c-7.6,5.4-15.6,10.4-24,15l0,0l-0.3,0.2
		c-5,2.7-10.2,5.3-15.7,7.8c-6.4,2.9-13,5.5-19.5,7.8l-0.2,0c-25.8-4.8-52.4-17.1-68.3-24.5l-1.1-0.5c-3.8-1.8-9-4.5-15.6-8.1
		c-24.8-13.3-66.4-35.7-102.1-38.7c-2.2-0.2-4.9-0.5-7.7-0.8c-5.9-0.7-12.5-1.4-17.2-1.4c-9.4,0-18.1,0.7-26.7,2
		c-1.3-0.5-2.6-0.7-4-0.7c-3,0-5.9,1.1-8.1,2.8c-1.4-0.8-3-1.2-4.7-1.2c-3.3,0-6.4,1.7-8.5,4.5c-6.6,1.8-13.3,3.9-20.3,6.2
		c-0.2,0.1-0.5,0-0.7-0.2c-0.2-0.2-0.2-0.5-0.1-0.8c6.4-11.2,21-22.3,40-30.6c22.5-9.7,49.8-15.1,77.1-15.1c3.6,0,7.2,0.1,10.8,0.3
		c37.8,1.9,83.8,18.9,105.9,27.1c2.1,0.8,4.1,1.5,5.7,2.1c32,11.6,66.5,22.4,102.1,22.4c29.4,0,58.2-5.2,85.5-15.5c0,0,0.1,0,0.1,0
		c11.8-4.5,23.1-6.8,33.6-6.8c13.7,0,21.7,4,22.1,5.7C483,265,482.8,265.4,482.4,265.6z"/>
	<path class="st3" d="M500.4,260.9c0,0.4-0.3,0.6-0.7,0.7c-0.1,0-0.2,0-0.3-0.1c-15.5-7.2-24.7-10.6-41.9-10.6
		c-11.2,0-22.3,2.9-30.8,5.4c-1.6,0.5-3.6,1.1-5.9,1.8c-12.4,3.8-33.1,10.2-52.7,13.2c-6.9,1-14.5,1.6-22.5,1.6
		c-47.3,0-98.4-17.4-127.7-32.3c-0.3-0.2-0.4-0.5-0.3-0.8c0.1-0.3,0.5-0.5,0.8-0.4c29.1,7.1,56.1,12.9,92,12.9
		c22.1,0,62.5-8.5,89.2-14.1c9.7-2,18-3.8,23.2-4.7c5.1-0.9,10.3-1.3,15.6-1.3c12.7,0,21.9,2.5,26.3,4c15.6,5.3,24.2,12.3,35.5,24.2
		C500.3,260.5,500.4,260.7,500.4,260.9z"/>
	<path class="st2" d="M19.6,297.3c-10,1.5-14.9,3.1-18.9,0.9c0,0,4.8-7.8,17.1-15.2c0,2.7,0.3,5.4,0.6,7.7
		C18.6,292.6,19,294.9,19.6,297.3z"/>
	<path class="st2" d="M409.9,312.5c-10.3,11.9-21.7,22.8-34.1,32.4c-7.8,6.1-16.2,11.8-24.8,16.9c-1,0.6-2,1.2-3.1,1.8
		c-8.3,4.8-17.2,9.1-26.3,12.9c-2.9,1.2-6,1.9-9.3,1.9c-1.9,0-3.7-0.2-5.5-0.6l0.3-0.3c8.4-4.4,16.5-9.3,24.2-14.4
		c3.4-2.3,6.8-4.7,10.1-7.2c1.6-1.2,3.1-2.4,4.6-3.6c3.1-2.4,6.2-5,9.4-7.8l0.5-0.4c0.3-0.3,0.6-0.5,0.9-0.8c2.2-2,4.1-4.2,5.7-6.6
		C384,329.3,399.7,319.5,409.9,312.5z"/>
	<path class="st2" d="M269.7,342.8c-8.2,4.7-15.3,11.2-20.9,19l-2,3.2c0,0-0.1,0.2-0.3,0.4c-0.1-0.1-0.2-0.3-0.3-0.4l-2-3.2
		c-7.8-10.8-18.4-18.9-30.8-23.6l-1.8-0.6c0,0-1.3-0.4-1.7-0.6l-2.4-0.8c-6.5-2.2-13-4.9-19.5-7.8c-5.4-2.5-10.7-5.1-15.7-7.8
		l-0.4-0.2l-0.1,0c-8.3-4.5-16.3-9.5-24-15c-1.2-0.9-4.8-3.6-9.7-3.6c-1.7,0-3.4,0.3-5,1c-5.4,2.1-9,7.2-9.1,13c0,0.3,0,0.5,0,0.7
		c-19.7-9.9-37.8-17.4-53.1-19.2c-0.1,0-0.1,0-0.2,0c-5.9-8-10.9-15.9-15.7-24.5c-0.2-0.3-0.5-1-1-1.8c7.9-1,17-1.4,27.1-0.8
		C138,273.7,208.2,327.6,269.7,342.8z"/>
	<path class="st2" d="M186.1,377.7L186.1,377.7c-1.8,0.5-3.6,0.7-5.5,0.7c-3.2,0-6.3-0.6-9.3-1.9c-9-3.8-17.9-8.1-26.3-12.9
		c-1-0.6-2-1.2-3.1-1.8c-8.6-5.1-16.9-10.7-24.8-16.9c-13.8-10.7-26.3-22.8-37.4-36.2c0.9,0.2,1.8,0.4,2.8,0.6
		c12.8,2.9,27.9,11.4,44.9,21.9c2.1,4.6,5.1,8.7,8.8,12.1c0.3,0.3,0.6,0.5,0.9,0.8l0.4,0.4c3.2,2.8,6.4,5.4,9.4,7.8
		c1.5,1.2,3.1,2.4,4.6,3.6c3.2,2.4,6.7,4.9,10.1,7.2c7.7,5.2,15.8,10,24.2,14.4L186.1,377.7z"/>
	<g>
		<path class="st0" d="M310.5,443.5c-19.4,5.4-34.7,9.7-60,9.7c-26.2,0-46.7-3.6-53.1-5.5c0,0-0.1,0-0.1,0
			c-3.9-0.9-11.2-2.9-8.9-2.2c-19.1-5.4-39.2-12.8-56.1-22.5c-19.4-11.1-42.7-27.5-58.3-43.3c-22.7-23-35-43.1-44.3-70.4
			c-0.6-1.9-3.9-13.1-4.7-19.5c-0.7-5.2-0.8-11.1,0.5-14.3c0.8-2,2.5-3.7,4.2-3.7c1.5,0,2.7,1.1,3.2,2.4c0,0,0,0,0,0
			c0.1,0.5,0.2,1,0.3,1.5v0.1c2.3,13.8,7.8,32.5,10.8,40.3c3.5,9.1,12.4,26,17.8,33.4c2,2.7,7.4,9,14.5,16.5
			c-11.8-14.6-21.6-30.7-28.7-48.7c-0.1-0.2-0.1-0.3-0.2-0.5v0c-4.8-12.3-8.5-25.2-11-38.5c0,0,0,0,0,0c-0.1-0.6-0.3-2-0.3-2
			c0-3.5,2.8-6.3,6.3-6.3c2,0,3.7,1,4.7,2.3c1,1.4,2.1,3.4,2.1,3.4c7.1,12.9,14.4,23.6,23.6,34.9c0.1,0.1,0.1,0.2,0.2,0.3
			c11.8,14.5,25.2,27.6,40,39.1c8.1,6.3,16.6,12.1,25.5,17.3c1.1,0.6,2.1,1.2,3.2,1.8c8.7,5,17.7,9.4,27,13.3
			c3.6,1.5,7.7,2.4,11.9,2.4c3.1,0,6-0.5,8.8-1.3c0,0,0,0,0,0c0.5-0.1,0.9-0.3,1.4-0.5c0,0,0.1,0,0.1,0c2-1,3.4-3,3.4-5.4
			c0-1.9-0.9-3.5-2.2-4.6c0,0,0,0,0,0c-0.7-0.5-1.4-0.9-2.2-1.1c0,0,0,0,0,0c-8.4-4.4-16.6-9.2-24.4-14.5c-3.3-2.3-6.6-4.6-9.9-7
			c-1.5-1.1-3-2.3-4.5-3.5c-3.1-2.4-6.1-5-9.1-7.6c0,0,0,0,0,0c-0.4-0.4-0.8-0.7-1.3-1.1c-5.9-5.4-9.7-13.1-10-21.7
			c0-0.1,0-0.1,0-0.2c0-0.1,0-0.3,0-0.4c0.1-3.3,2.1-6,5-7.2c4-1.7,7.7,1.4,8.4,1.9c7.9,5.6,16.2,10.8,24.8,15.5
			c0.1,0,0.1,0.1,0.2,0.1c5.2,2.9,10.6,5.5,16.1,8c6.9,3.1,13.9,5.9,21.1,8.3c0,0,0,0,0.1,0c0.9,0.3,1.8,0.6,2.7,0.9
			c0.5,0.2,0.9,0.3,1.4,0.5c0,0,0.1,0,0.1,0c11.8,4.4,21.8,12.3,28.8,22.5c0,0,0,0,0,0c1.2,2,2.4,4,3.6,6c0,0,0,0,0,0.1c0,0,0,0,0,0
			c4.9,7.9,10.3,15.4,16.1,22.6c1.5,2,3.1,3.9,4.8,5.8h0C278.3,418.1,292.2,431.1,310.5,443.5z"/>
	</g>
	<path class="st0" d="M468,289.7c-0.8,6.4-4.1,17.6-4.7,19.5c-9.3,27.3-21.6,47.4-44.3,70.4c-15.6,15.8-38.8,32.2-58.3,43.3
		c-12.8,7.4-27.6,13.4-42.3,18.3c-16-11.5-30.5-24.9-43.2-39.9h0c-1.6-1.9-3.2-3.8-4.8-5.8c-5.8-7.2-11.1-14.8-16.1-22.6
		c0,0,0,0,0,0c0,0,0,0,0-0.1c-0.8-1.2-1.5-2.5-2.3-3.7c0.5-0.8,0.9-1.5,1.4-2.3c0,0,0,0,0,0c7-10.2,17.1-18.1,28.8-22.5
		c0,0,0.1,0,0.1,0c0.5-0.2,0.9-0.3,1.4-0.5c0.9-0.3,1.8-0.6,2.7-0.9c0,0,0,0,0.1,0c7.2-2.5,14.2-5.3,21.1-8.4
		c5.5-2.5,10.9-5.1,16.1-8c0.1,0,0.1-0.1,0.2-0.1c8.6-4.7,16.9-9.9,24.8-15.5c0.8-0.5,4.4-3.6,8.4-1.9c2.9,1.1,5,3.9,5,7.1
		c0,0.1,0,0.3,0,0.4c0,0.1,0,0.1,0,0.2c-0.2,8.6-4,16.3-9.9,21.7c-0.4,0.4-0.8,0.7-1.3,1.1c0,0,0,0,0,0c-3,2.6-6,5.1-9.1,7.6
		c-1.5,1.2-3,2.3-4.5,3.5c-3.2,2.4-6.5,4.8-9.8,7c-7.8,5.3-15.9,10.1-24.4,14.5c0,0,0,0,0,0c-0.8,0.2-1.6,0.6-2.2,1.1c0,0,0,0,0,0
		c-1.3,1.1-2.2,2.8-2.2,4.6c0,2.4,1.4,4.4,3.4,5.4c0,0,0.1,0,0.1,0c0.4,0.2,0.9,0.4,1.4,0.5c0,0,0,0,0,0c2.8,0.8,5.8,1.3,8.8,1.3
		c4.2,0,8.2-0.9,11.9-2.4c9.3-3.9,18.3-8.3,27-13.3c1.1-0.6,2.1-1.2,3.2-1.8c8.9-5.3,17.4-11.1,25.5-17.4
		c14.8-11.5,28.2-24.6,40-39.1c0.1-0.1,0.1-0.2,0.2-0.3c9.2-11.3,16.5-22,23.6-34.9c0,0,1.1-2.1,2.1-3.4c1-1.3,2.7-2.3,4.7-2.3
		c3.5,0,6.3,2.8,6.3,6.3c0,0-0.2,1.4-0.3,2c0,0,0,0,0,0c-2.5,13.3-6.2,26.2-10.9,38.5v0c-0.1,0.2-0.1,0.3-0.2,0.5
		c-7,18-16.8,34.1-28.6,48.7c7.2-7.6,12.5-13.8,14.5-16.5c5.4-7.4,14.3-24.4,17.8-33.4c3-7.8,8.5-26.6,10.8-40.3v-0.1
		c0.1-0.5,0.2-1,0.3-1.5c0,0,0,0,0,0c0.5-1.4,1.7-2.4,3.2-2.4c1.7,0,3.4,1.7,4.2,3.7C468.8,278.6,468.7,284.5,468,289.7z"/>
	<g>
		<path class="st0" d="M535.6,126.9h36.1c9.2,0.1,16,2.5,20.6,7.1c4.6,4.7,7,10.9,7,18.7c0.1,4-0.8,7.7-2.7,11.3
			c-1,1.7-2.4,3.3-4.2,4.9c-1.8,1.6-4.1,3.1-6.8,4.4v0.3c5.1,1.4,8.9,4.1,11.5,8.2c2.4,4.3,3.6,8.9,3.6,13.9
			c-0.1,8.3-2.6,14.9-7.5,19.7c-4.9,5.1-11,7.6-18.3,7.6h-39.2V126.9z M549.7,139.9v27.6h20.4c5.2,0,8.9-1.4,11.4-4.2
			c2.5-2.6,3.7-5.8,3.7-9.7c0-3.9-1.2-7.2-3.7-9.9c-2.4-2.5-6.2-3.8-11.4-3.9H549.7z M549.7,180.4v29h21.8c5.2-0.1,9.1-1.6,11.5-4.4
			c2.4-2.8,3.6-6.2,3.6-10c0-4-1.2-7.4-3.6-10.2c-2.4-2.8-6.3-4.2-11.5-4.3H549.7z"/>
		<path class="st0" d="M675.8,201.6h-35.3l-7.2,21.5h-14.9l33.8-96.1h11.8l33.8,96.1H683L675.8,201.6z M671.8,188.7l-13.5-42h-0.3
			l-13.5,42H671.8z"/>
		<path class="st0" d="M780.9,196.2c-2,8.9-5.9,15.8-11.7,20.5c-5.9,4.7-12.9,7.1-21,7.1c-7.3-0.2-13.4-2-18.3-5.5
			c-5-3.4-8.6-7.3-10.9-11.7c-0.7-1.5-1.3-2.8-1.9-4.2c-0.5-1.4-0.9-3.1-1.3-5.1c-0.6-3.9-1-11.3-1-22.3c0-11.2,0.3-18.6,1-22.4
			c0.7-3.8,1.7-6.8,3.1-9.2c2.3-4.4,5.9-8.4,10.9-11.9c4.9-3.5,11-5.3,18.3-5.4c9,0.1,16.3,2.8,22,8.2c5.7,5.4,9.2,12.2,10.7,20.2
			h-15c-1.2-3.9-3.2-7.2-6.3-9.9c-3.2-2.6-7-3.9-11.5-4c-3.3,0.1-6.2,0.8-8.6,2c-2.4,1.3-4.4,3-5.9,5c-1.8,2.1-3,4.7-3.6,8
			c-0.7,3.4-1,9.9-1,19.4c0,9.5,0.3,15.9,1,19.2c0.6,3.3,1.8,6.1,3.6,8.1c1.5,2,3.5,3.6,5.9,4.8c2.4,1.5,5.2,2.2,8.6,2.2
			c7.9,0,13.9-4.4,17.8-13.1H780.9z"/>
		<path class="st0" d="M803.3,126.9h14.1v49.5h0.3l38.3-49.5h16.7l-29.8,37.9l33,58.2h-16.7l-25.4-47l-16.4,17.7v29.3h-14.1V126.9z"
			/>
		<path class="st0" d="M914.7,183.5l-28-56.6h14.9l19.7,42.6l19.7-42.6H956l-28,56.6v39.6h-13.3V183.5z"/>
		<path class="st0" d="M1013.8,201.6h-35.3l-7.1,21.5h-14.9l33.8-96.1h11.8l33.8,96.1H1021L1013.8,201.6z M1009.8,188.7l-13.5-42
			H996l-13.5,42H1009.8z"/>
		<path class="st0" d="M1058.5,126.9h36.4c7.8,0,14.1,2.1,19,6.3c5.9,4.8,9,11.6,9.2,20.5c-0.2,13.1-6.2,21.9-18,26.6l21.5,42.6
			H1110l-19.3-41.1h-18.1v41.1h-14.1V126.9z M1072.6,169.1h21.4c5.3-0.1,9.3-1.7,11.9-4.8c2.6-2.9,3.9-6.4,3.9-10.6
			c-0.1-5-1.6-8.7-4.7-10.9c-2.4-2-5.8-3-10.4-3h-22.1V169.1z"/>
		<path class="st0" d="M1151,126.9h32.6c12.6,0.1,22.1,5.5,28.4,16.2c2.3,3.6,3.7,7.4,4.3,11.3c0.5,4,0.7,10.8,0.7,20.5
			c0,10.3-0.4,17.5-1.1,21.6c-0.3,2.1-0.9,3.9-1.5,5.5c-0.7,1.6-1.6,3.2-2.6,4.9c-2.7,4.5-6.5,8.3-11.4,11.2
			c-4.8,3.2-10.7,4.7-17.7,4.7H1151V126.9z M1165.1,209.4h16.9c7.9,0,13.7-2.8,17.3-8.4c1.6-2.1,2.6-4.7,3-7.9
			c0.4-3.1,0.6-9,0.6-17.6c0-8.4-0.2-14.4-0.6-18c-0.5-3.6-1.7-6.5-3.6-8.8c-3.9-5.6-9.5-8.3-16.6-8.1h-16.9V209.4z"/>
		<path class="st0" d="M535.6,249.9h36.1c9.2,0.1,16,2.5,20.6,7.1c4.6,4.7,7,10.9,7,18.7c0.1,4-0.8,7.7-2.7,11.3
			c-1,1.7-2.4,3.3-4.2,4.9c-1.8,1.6-4.1,3.1-6.8,4.4v0.3c5.1,1.4,8.9,4.1,11.5,8.2c2.4,4.3,3.6,8.9,3.6,13.9
			c-0.1,8.3-2.6,14.9-7.5,19.7c-4.9,5.1-11,7.6-18.3,7.6h-39.2V249.9z M549.7,262.9v27.6h20.4c5.2,0,8.9-1.4,11.4-4.2
			c2.5-2.6,3.7-5.8,3.7-9.7c0-3.9-1.2-7.2-3.7-9.9c-2.4-2.5-6.2-3.8-11.4-3.9H549.7z M549.7,303.4v29h21.8c5.2-0.1,9.1-1.6,11.5-4.4
			c2.4-2.8,3.6-6.2,3.6-10c0-4-1.2-7.4-3.6-10.2c-2.4-2.8-6.3-4.2-11.5-4.3H549.7z"/>
		<path class="st0" d="M626.4,249.9h14.1v62c0.1,6.6,1.9,11.5,5.5,15c3.5,3.6,8,5.4,13.5,5.4c5.5,0,10-1.8,13.6-5.4
			c3.5-3.4,5.3-8.4,5.4-15v-62h14.1v63.5c-0.2,10.1-3.3,18.1-9.5,24.1c-6.2,6.1-14.1,9.2-23.6,9.3c-9.3-0.1-17.1-3.2-23.4-9.3
			c-6.4-5.9-9.6-13.9-9.7-24V249.9z"/>
		<path class="st0" d="M720.1,298c0-11.2,0.3-18.7,1-22.5c0.7-3.8,1.7-6.8,3.1-9.2c2.3-4.4,5.9-8.4,10.8-11.8
			c4.9-3.5,11-5.3,18.3-5.4c7.4,0.1,13.6,1.9,18.5,5.4c4.9,3.5,8.4,7.4,10.6,11.9c1.6,2.3,2.7,5.4,3.3,9.2
			c0.6,3.8,0.8,11.3,0.8,22.4c0,11-0.3,18.4-0.8,22.3c-0.6,3.9-1.7,7-3.3,9.3c-2.2,4.4-5.7,8.3-10.6,11.7
			c-4.9,3.5-11.1,5.4-18.5,5.5c-7.3-0.2-13.4-2-18.3-5.5c-5-3.4-8.6-7.3-10.8-11.7c-0.7-1.5-1.3-2.8-1.8-4.2
			c-0.5-1.4-0.9-3.1-1.3-5.1C720.4,316.4,720.1,309,720.1,298z M734.2,298c0,9.5,0.3,15.9,1,19.2c0.6,3.3,1.8,6.1,3.6,8.1
			c1.5,2,3.5,3.6,5.9,4.8c2.4,1.5,5.2,2.2,8.6,2.2c3.4,0,6.3-0.7,8.8-2.2c2.3-1.2,4.2-2.8,5.6-4.8c1.8-2.1,3.1-4.8,3.8-8.1
			c0.6-3.3,1-9.8,1-19.2c0-9.5-0.3-15.9-1-19.4c-0.7-3.3-1.9-5.9-3.8-8c-1.4-2-3.3-3.6-5.6-5c-2.5-1.3-5.4-2-8.8-2
			c-3.3,0.1-6.2,0.8-8.6,2c-2.4,1.3-4.4,3-5.9,5c-1.8,2.1-3,4.7-3.6,8C734.5,282.1,734.2,288.5,734.2,298z"/>
		<path class="st0" d="M827.9,306.5l-28-56.6h14.9l19.7,42.6l19.7-42.6h14.9l-28,56.6v39.6h-13.3V306.5z"/>
		<path class="st0" d="M890.5,322.8c7.4,6.3,16.2,9.5,26.5,9.6c12.1-0.2,18.2-4.6,18.4-13.4c0.1-7.2-4-11.5-12.1-12.9
			c-3.7-0.5-7.9-1.1-12.3-1.8c-8-1.4-14.1-4.4-18.3-9.2c-4.3-4.9-6.5-10.8-6.5-17.8c0-8.4,2.7-15.2,8.1-20.3
			c5.2-5.1,12.7-7.7,22.3-7.8c11.6,0.3,21.6,3.6,30.2,9.9l-7.9,12c-7-4.8-14.7-7.2-23.1-7.4c-4.3,0-8,1.1-10.9,3.4
			c-3,2.3-4.6,5.8-4.7,10.4c0,2.8,1,5.3,3.1,7.5c2.1,2.3,5.4,3.9,10,4.8c2.6,0.4,6,0.9,10.5,1.5c8.7,1.2,15.2,4.5,19.3,9.7
			c4.1,5.1,6.2,11.1,6.2,17.9c-0.5,18.4-11.4,27.7-32.7,28c-13.8,0-25.6-4.4-35.5-13.1L890.5,322.8z"/>
	</g>
	<g class="st4">
		<path class="st5" d="M535.6,126.9h36.1c9.2,0.1,16,2.5,20.6,7.1c4.6,4.7,7,10.9,7,18.7c0.1,4-0.8,7.7-2.7,11.3
			c-1,1.7-2.4,3.3-4.2,4.9c-1.8,1.6-4.1,3.1-6.8,4.4v0.3c5.1,1.4,8.9,4.1,11.5,8.2c2.4,4.3,3.6,8.9,3.6,13.9
			c-0.1,8.3-2.6,14.9-7.5,19.7c-4.9,5.1-11,7.6-18.3,7.6h-39.2V126.9z M549.7,139.9v27.6h20.4c5.2,0,8.9-1.4,11.4-4.2
			c2.5-2.6,3.7-5.8,3.7-9.7c0-3.9-1.2-7.2-3.7-9.9c-2.4-2.5-6.2-3.8-11.4-3.9H549.7z M549.7,180.4v29h21.8c5.2-0.1,9.1-1.6,11.5-4.4
			c2.4-2.8,3.6-6.2,3.6-10c0-4-1.2-7.4-3.6-10.2c-2.4-2.8-6.3-4.2-11.5-4.3H549.7z"/>
		<path class="st5" d="M675.8,201.6h-35.3l-7.2,21.5h-14.9l33.8-96.1h11.8l33.8,96.1H683L675.8,201.6z M671.8,188.7l-13.5-42h-0.3
			l-13.5,42H671.8z"/>
		<path class="st5" d="M780.9,196.2c-2,8.9-5.9,15.8-11.7,20.5c-5.9,4.7-12.9,7.1-21,7.1c-7.3-0.2-13.4-2-18.3-5.5
			c-5-3.4-8.6-7.3-10.9-11.7c-0.7-1.5-1.3-2.8-1.9-4.2c-0.5-1.4-0.9-3.1-1.3-5.1c-0.6-3.9-1-11.3-1-22.3c0-11.2,0.3-18.6,1-22.4
			c0.7-3.8,1.7-6.8,3.1-9.2c2.3-4.4,5.9-8.4,10.9-11.9c4.9-3.5,11-5.3,18.3-5.4c9,0.1,16.3,2.8,22,8.2c5.7,5.4,9.2,12.2,10.7,20.2
			h-15c-1.2-3.9-3.2-7.2-6.3-9.9c-3.2-2.6-7-3.9-11.5-4c-3.3,0.1-6.2,0.8-8.6,2c-2.4,1.3-4.4,3-5.9,5c-1.8,2.1-3,4.7-3.6,8
			c-0.7,3.4-1,9.9-1,19.4c0,9.5,0.3,15.9,1,19.2c0.6,3.3,1.8,6.1,3.6,8.1c1.5,2,3.5,3.6,5.9,4.8c2.4,1.5,5.2,2.2,8.6,2.2
			c7.9,0,13.9-4.4,17.8-13.1H780.9z"/>
		<path class="st5" d="M803.3,126.9h14.1v49.5h0.3l38.3-49.5h16.7l-29.8,37.9l33,58.2h-16.7l-25.4-47l-16.4,17.7v29.3h-14.1V126.9z"
			/>
		<path class="st5" d="M914.7,183.5l-28-56.6h14.9l19.7,42.6l19.7-42.6H956l-28,56.6v39.6h-13.3V183.5z"/>
		<path class="st5" d="M1013.8,201.6h-35.3l-7.1,21.5h-14.9l33.8-96.1h11.8l33.8,96.1H1021L1013.8,201.6z M1009.8,188.7l-13.5-42
			H996l-13.5,42H1009.8z"/>
		<path class="st5" d="M1058.5,126.9h36.4c7.8,0,14.1,2.1,19,6.3c5.9,4.8,9,11.6,9.2,20.5c-0.2,13.1-6.2,21.9-18,26.6l21.5,42.6
			H1110l-19.3-41.1h-18.1v41.1h-14.1V126.9z M1072.6,169.1h21.4c5.3-0.1,9.3-1.7,11.9-4.8c2.6-2.9,3.9-6.4,3.9-10.6
			c-0.1-5-1.6-8.7-4.7-10.9c-2.4-2-5.8-3-10.4-3h-22.1V169.1z"/>
		<path class="st5" d="M1151,126.9h32.6c12.6,0.1,22.1,5.5,28.4,16.2c2.3,3.6,3.7,7.4,4.3,11.3c0.5,4,0.7,10.8,0.7,20.5
			c0,10.3-0.4,17.5-1.1,21.6c-0.3,2.1-0.9,3.9-1.5,5.5c-0.7,1.6-1.6,3.2-2.6,4.9c-2.7,4.5-6.5,8.3-11.4,11.2
			c-4.8,3.2-10.7,4.7-17.7,4.7H1151V126.9z M1165.1,209.4h16.9c7.9,0,13.7-2.8,17.3-8.4c1.6-2.1,2.6-4.7,3-7.9
			c0.4-3.1,0.6-9,0.6-17.6c0-8.4-0.2-14.4-0.6-18c-0.5-3.6-1.7-6.5-3.6-8.8c-3.9-5.6-9.5-8.3-16.6-8.1h-16.9V209.4z"/>
		<path class="st5" d="M535.6,249.9h36.1c9.2,0.1,16,2.5,20.6,7.1c4.6,4.7,7,10.9,7,18.7c0.1,4-0.8,7.7-2.7,11.3
			c-1,1.7-2.4,3.3-4.2,4.9c-1.8,1.6-4.1,3.1-6.8,4.4v0.3c5.1,1.4,8.9,4.1,11.5,8.2c2.4,4.3,3.6,8.9,3.6,13.9
			c-0.1,8.3-2.6,14.9-7.5,19.7c-4.9,5.1-11,7.6-18.3,7.6h-39.2V249.9z M549.7,262.9v27.6h20.4c5.2,0,8.9-1.4,11.4-4.2
			c2.5-2.6,3.7-5.8,3.7-9.7c0-3.9-1.2-7.2-3.7-9.9c-2.4-2.5-6.2-3.8-11.4-3.9H549.7z M549.7,303.4v29h21.8c5.2-0.1,9.1-1.6,11.5-4.4
			c2.4-2.8,3.6-6.2,3.6-10c0-4-1.2-7.4-3.6-10.2c-2.4-2.8-6.3-4.2-11.5-4.3H549.7z"/>
		<path class="st5" d="M626.4,249.9h14.1v62c0.1,6.6,1.9,11.5,5.5,15c3.5,3.6,8,5.4,13.5,5.4c5.5,0,10-1.8,13.6-5.4
			c3.5-3.4,5.3-8.4,5.4-15v-62h14.1v63.5c-0.2,10.1-3.3,18.1-9.5,24.1c-6.2,6.1-14.1,9.2-23.6,9.3c-9.3-0.1-17.1-3.2-23.4-9.3
			c-6.4-5.9-9.6-13.9-9.7-24V249.9z"/>
		<path class="st5" d="M720.1,298c0-11.2,0.3-18.7,1-22.5c0.7-3.8,1.7-6.8,3.1-9.2c2.3-4.4,5.9-8.4,10.8-11.8
			c4.9-3.5,11-5.3,18.3-5.4c7.4,0.1,13.6,1.9,18.5,5.4c4.9,3.5,8.4,7.4,10.6,11.9c1.6,2.3,2.7,5.4,3.3,9.2
			c0.6,3.8,0.8,11.3,0.8,22.4c0,11-0.3,18.4-0.8,22.3c-0.6,3.9-1.7,7-3.3,9.3c-2.2,4.4-5.7,8.3-10.6,11.7
			c-4.9,3.5-11.1,5.4-18.5,5.5c-7.3-0.2-13.4-2-18.3-5.5c-5-3.4-8.6-7.3-10.8-11.7c-0.7-1.5-1.3-2.8-1.8-4.2
			c-0.5-1.4-0.9-3.1-1.3-5.1C720.4,316.4,720.1,309,720.1,298z M734.2,298c0,9.5,0.3,15.9,1,19.2c0.6,3.3,1.8,6.1,3.6,8.1
			c1.5,2,3.5,3.6,5.9,4.8c2.4,1.5,5.2,2.2,8.6,2.2c3.4,0,6.3-0.7,8.8-2.2c2.3-1.2,4.2-2.8,5.6-4.8c1.8-2.1,3.1-4.8,3.8-8.1
			c0.6-3.3,1-9.8,1-19.2c0-9.5-0.3-15.9-1-19.4c-0.7-3.3-1.9-5.9-3.8-8c-1.4-2-3.3-3.6-5.6-5c-2.5-1.3-5.4-2-8.8-2
			c-3.3,0.1-6.2,0.8-8.6,2c-2.4,1.3-4.4,3-5.9,5c-1.8,2.1-3,4.7-3.6,8C734.5,282.1,734.2,288.5,734.2,298z"/>
		<path class="st5" d="M827.9,306.5l-28-56.6h14.9l19.7,42.6l19.7-42.6h14.9l-28,56.6v39.6h-13.3V306.5z"/>
		<path class="st5" d="M890.5,322.8c7.4,6.3,16.2,9.5,26.5,9.6c12.1-0.2,18.2-4.6,18.4-13.4c0.1-7.2-4-11.5-12.1-12.9
			c-3.7-0.5-7.9-1.1-12.3-1.8c-8-1.4-14.1-4.4-18.3-9.2c-4.3-4.9-6.5-10.8-6.5-17.8c0-8.4,2.7-15.2,8.1-20.3
			c5.2-5.1,12.7-7.7,22.3-7.8c11.6,0.3,21.6,3.6,30.2,9.9l-7.9,12c-7-4.8-14.7-7.2-23.1-7.4c-4.3,0-8,1.1-10.9,3.4
			c-3,2.3-4.6,5.8-4.7,10.4c0,2.8,1,5.3,3.1,7.5c2.1,2.3,5.4,3.9,10,4.8c2.6,0.4,6,0.9,10.5,1.5c8.7,1.2,15.2,4.5,19.3,9.7
			c4.1,5.1,6.2,11.1,6.2,17.9c-0.5,18.4-11.4,27.7-32.7,28c-13.8,0-25.6-4.4-35.5-13.1L890.5,322.8z"/>
	</g>
</g>
<g id="Black" class="st4">
	<path class="st6" d="M203.8,14.8l-46.3,29C135.6,54.1,115.8,68,98.6,85.2c-19.1,19.1-34,41.3-44.5,66C43.2,176.8,37.8,204,37.8,232
		c0,1.5,0,3.1,0,4.6c-4.5,2.4-8.9,5-13.2,7.7c-0.2-4.1-0.3-8.2-0.3-12.4C24.3,124.1,101.6,34.3,203.8,14.8z"/>
	<path class="st6" d="M466.5,230.5c-4.1-1.4-8.7-2.5-13.5-3.2c-0.6-26.4-6.1-51.9-16.3-76c-10.2-24.1-24.6-45.7-43-64.5l-9.1-26.5
		C434.2,100.5,466.1,161.8,466.5,230.5z"/>
	<path class="st6" d="M359.8,226.3c-1.2,3.3-4.4,8.9-9.6,15.4c-15.2,2.6-29.6,4.5-39.9,4.5c-35.2,0-61.8-5.8-90.6-12.8
		c-40-9.2-61.4-12.9-76.2-14.4c-11.7-31.5-10.3-62.6-7.1-71.7c0,0,78.1,33,110,44.2C278.3,202.8,359.8,226.3,359.8,226.3z"/>
	<g class="st6">
		<path d="M421.7,207.4l-0.1,0.5c-0.6,2.5-4.8,11.1-10.4,15.9c-4.7,4-8.7,6.7-10.3,7l-0.2,0c-2.2,0-116.6-33.6-151.9-46.1
			c-34-12-146-58.1-147.3-59.7c-1.1-1.2-2.5-5.9-3.6-11.9c-1.4-7.3,0.8-16.6,1.9-18.9c0.2-0.4,0.6-0.7,1.1-0.7c0.9,0,3,1,10.9,4.9
			c4,2,8.6,4.2,13.3,6.4c13.8,6.4,100.7,41.1,133.4,52.6c32.7,11.6,122.1,39.2,136.8,42.8c5,1.2,10,2.4,14.4,3.3
			c10.7,2.4,11.4,2.6,11.9,3.4L421.7,207.4z"/>
	</g>
	<g class="st6">
		<path d="M409.3,197.6c-0.2,0.2-0.5,0.3-0.8,0.3c-0.1,0-0.2,0-0.3,0c-0.8-0.2-83.4-23.8-146.6-46.1c-63.1-22.3-142.2-55.8-143-56.1
			c-0.4-0.2-0.6-0.5-0.7-0.9c0-0.4,0.2-0.8,0.5-1l91-61.3c0.3-0.2,0.7-0.2,1-0.1c0,0,70.5,24.9,83.1,29.4l83.1,29.3
			c0.3,0.1,0.6,0.4,0.7,0.7l32.3,104.9C409.7,196.9,409.6,197.3,409.3,197.6z"/>
	</g>
	<g class="st6">
		<path d="M378.7,85.1c-0.2,0.2-0.5,0.3-0.8,0.3c-0.1,0-0.2,0-0.3-0.1l-71.6-25.3c-0.3-0.1-0.5-0.3-0.6-0.6c-0.1-0.3-0.1-0.6,0-0.9
			c0,0,1.5-3.6,0-7.2c-1.1-2.5-3.5-4.5-7.2-5.8c-1.8-0.6-3.5-1-5.1-1c-6.7,0-8.6,6.2-8.7,6.5c-0.1,0.3-0.3,0.5-0.5,0.7
			c-0.3,0.1-0.6,0.2-0.8,0.1l-71.6-25.3c-0.4-0.1-0.7-0.5-0.7-0.9c0-0.4,0.1-0.8,0.5-1l39.2-24.6c0.3-0.2,0.6-0.2,0.9-0.1l112,39.6
			c0.3,0.1,0.5,0.3,0.7,0.7l15,43.7C379,84.4,378.9,84.8,378.7,85.1z"/>
	</g>
	<path class="st6" d="M482.4,265.6c-0.9,0.4-2.5,0.8-4.7,1.2c-2,0.4-4.4,0.9-7,1.6c-2.1-2.1-4.8-3.4-7.5-3.4c-1.7,0-3.3,0.4-4.7,1.2
		c-2.2-1.8-5-2.8-8.1-2.8c-3.9,0-7.6,1.9-10,4.9c-1.2,1.7-2.3,3.7-2.7,4.3c-3.9,7.1-7.9,13.6-12.5,20.1c-6.4,4.2-12.5,8.3-17.7,11.9
		c-5.7,3.8-10.5,7.1-13.8,9.2c-7,4.4-16.2,8.5-26.4,12.1c0.8-2.9,1.3-5.9,1.4-9c0-0.2,0-0.4,0-0.6c0-0.2,0-0.5,0-0.7
		c-0.2-5.8-3.7-10.9-9.2-13c-1.6-0.7-3.3-1-5-1c-4.9,0-8.5,2.7-9.8,3.7c-7.6,5.4-15.6,10.4-24,15l0,0l-0.3,0.2
		c-5,2.7-10.2,5.3-15.7,7.8c-6.4,2.9-13,5.5-19.5,7.8l-0.2,0c-25.8-4.8-52.5-17.1-68.3-24.5l-1.1-0.5c-3.8-1.8-9-4.5-15.6-8.1
		c-24.8-13.3-66.4-35.7-102.1-38.7c-2.2-0.2-4.9-0.5-7.7-0.8c-5.9-0.7-12.5-1.4-17.2-1.4c-9.4,0-18.1,0.7-26.7,2
		c-1.3-0.5-2.6-0.7-4-0.7c-3,0-5.9,1.1-8.1,2.8c-1.4-0.8-3-1.2-4.7-1.2c-3.3,0-6.4,1.7-8.5,4.5c-6.6,1.8-13.3,3.9-20.3,6.2
		c-0.2,0.1-0.5,0-0.7-0.2c-0.2-0.2-0.2-0.5-0.1-0.8c6.4-11.2,21-22.3,40-30.6c22.5-9.7,49.8-15.1,77.1-15.1c3.6,0,7.2,0.1,10.8,0.3
		c37.8,1.9,83.8,18.9,105.9,27.1c2.1,0.8,4.1,1.5,5.7,2.1c32,11.6,66.5,22.4,102.1,22.4c29.4,0,58.2-5.2,85.5-15.5c0,0,0.1,0,0.1,0
		c11.8-4.5,23.1-6.8,33.6-6.8c13.7,0,21.7,4,22.1,5.7C483,265,482.8,265.4,482.4,265.6z"/>
	<path class="st6" d="M500.4,260.9c0,0.4-0.3,0.6-0.7,0.7c-0.1,0-0.2,0-0.3-0.1c-15.5-7.2-24.7-10.6-41.9-10.6
		c-11.2,0-22.3,2.9-30.8,5.4c-1.6,0.5-3.6,1.1-5.9,1.8c-12.4,3.8-33.1,10.2-52.7,13.2c-6.9,1-14.5,1.6-22.5,1.6
		c-47.3,0-98.4-17.4-127.7-32.3c-0.3-0.2-0.4-0.5-0.3-0.8c0.1-0.3,0.5-0.5,0.8-0.4c29.1,7.1,56.1,12.9,92,12.9
		c22.1,0,62.5-8.5,89.2-14.1c9.7-2,18-3.8,23.2-4.7c5.1-0.9,10.3-1.3,15.6-1.3c12.7,0,21.9,2.5,26.3,4c15.6,5.3,24.2,12.3,35.5,24.2
		C500.3,260.5,500.4,260.7,500.4,260.9z"/>
	<path class="st6" d="M19.6,297.3c-10,1.5-14.9,3.1-18.9,0.9c0,0,4.8-7.8,17.1-15.2c0,2.7,0.3,5.4,0.6,7.7
		C18.6,292.6,19,294.9,19.6,297.3z"/>
	<path class="st6" d="M409.9,312.5c-10.3,11.9-21.7,22.8-34.1,32.4c-7.8,6.1-16.2,11.8-24.8,16.9c-1,0.6-2,1.2-3.1,1.8
		c-8.3,4.8-17.2,9.1-26.3,12.9c-2.9,1.2-6,1.9-9.3,1.9c-1.9,0-3.7-0.2-5.5-0.6l0.3-0.3c8.4-4.4,16.5-9.3,24.2-14.4
		c3.4-2.3,6.8-4.7,10.1-7.2c1.6-1.2,3.1-2.4,4.6-3.6c3.1-2.4,6.2-5,9.4-7.8l0.5-0.4c0.3-0.3,0.6-0.5,0.9-0.8c2.2-2,4.1-4.2,5.7-6.6
		C384,329.3,399.7,319.5,409.9,312.5z"/>
	<path class="st6" d="M269.7,342.8c-8.2,4.7-15.3,11.2-20.9,19l-2,3.2c0,0-0.1,0.2-0.3,0.4c-0.1-0.1-0.2-0.3-0.3-0.4l-2-3.2
		c-7.8-10.8-18.4-18.9-30.8-23.6l-1.8-0.6c0,0-1.3-0.4-1.7-0.6l-2.4-0.8c-6.5-2.2-13-4.9-19.5-7.8c-5.4-2.5-10.7-5.1-15.7-7.8
		l-0.4-0.2l-0.1,0c-8.3-4.5-16.3-9.5-24-15c-1.2-0.9-4.8-3.6-9.7-3.6c-1.7,0-3.4,0.3-5,1c-5.4,2.1-9,7.2-9.1,13c0,0.3,0,0.5,0,0.7
		c-19.7-9.9-37.8-17.4-53.1-19.2c-0.1,0-0.1,0-0.2,0c-5.9-8-10.9-15.9-15.7-24.5c-0.2-0.3-0.5-1-1-1.8c7.9-1,17-1.4,27.1-0.8
		C138,273.7,208.2,327.6,269.7,342.8z"/>
	<path class="st6" d="M186.1,377.7L186.1,377.7c-1.8,0.5-3.6,0.7-5.5,0.7c-3.2,0-6.3-0.6-9.3-1.9c-9-3.8-17.9-8.1-26.3-12.9
		c-1-0.6-2-1.2-3.1-1.8c-8.6-5.1-16.9-10.7-24.8-16.9c-13.8-10.7-26.3-22.8-37.4-36.2c0.9,0.2,1.8,0.4,2.8,0.6
		c12.8,2.9,27.9,11.4,44.9,21.9c2.1,4.6,5.1,8.7,8.8,12.1c0.3,0.3,0.6,0.5,0.9,0.8l0.4,0.4c3.2,2.8,6.4,5.4,9.4,7.8
		c1.5,1.2,3.1,2.4,4.6,3.6c3.2,2.4,6.7,4.9,10.1,7.2c7.7,5.2,15.8,10,24.2,14.4L186.1,377.7z"/>
	<g class="st6">
		<path d="M310.5,443.5c-19.4,5.4-34.7,9.7-60,9.7c-26.2,0-46.7-3.6-53.1-5.5c0,0-0.1,0-0.1,0c-3.9-0.9-11.2-2.9-8.9-2.2
			c-19.1-5.4-39.2-12.8-56.1-22.5c-19.4-11.1-42.7-27.5-58.3-43.3c-22.7-23-35-43.1-44.3-70.4c-0.6-1.9-3.9-13.1-4.7-19.5
			c-0.7-5.2-0.8-11.1,0.5-14.3c0.8-2,2.5-3.7,4.2-3.7c1.5,0,2.7,1.1,3.2,2.4c0,0,0,0,0,0c0.1,0.5,0.2,1,0.3,1.5v0.1
			c2.3,13.8,7.8,32.5,10.8,40.3c3.5,9.1,12.4,26,17.8,33.4c2,2.7,7.4,9,14.5,16.5c-11.8-14.6-21.6-30.7-28.7-48.7
			c-0.1-0.2-0.1-0.3-0.2-0.5v0c-4.8-12.3-8.5-25.2-11-38.5c0,0,0,0,0,0c-0.1-0.6-0.3-2-0.3-2c0-3.5,2.8-6.3,6.3-6.3
			c2,0,3.7,1,4.7,2.3c1,1.4,2.1,3.4,2.1,3.4c7.1,12.9,14.4,23.6,23.6,34.9c0.1,0.1,0.1,0.2,0.2,0.3c11.8,14.5,25.2,27.6,40,39.1
			c8.1,6.3,16.6,12.1,25.5,17.3c1.1,0.6,2.1,1.2,3.2,1.8c8.7,5,17.7,9.4,27,13.3c3.6,1.5,7.7,2.4,11.9,2.4c3.1,0,6-0.5,8.8-1.3
			c0,0,0,0,0,0c0.5-0.1,0.9-0.3,1.4-0.5c0,0,0.1,0,0.1,0c2-1,3.4-3,3.4-5.4c0-1.9-0.9-3.5-2.2-4.6c0,0,0,0,0,0
			c-0.7-0.5-1.4-0.9-2.2-1.1c0,0,0,0,0,0c-8.4-4.4-16.6-9.2-24.4-14.5c-3.3-2.3-6.6-4.6-9.9-7c-1.5-1.1-3-2.3-4.5-3.5
			c-3.1-2.4-6.1-5-9.1-7.6c0,0,0,0,0,0c-0.4-0.4-0.8-0.7-1.3-1.1c-5.9-5.4-9.7-13.1-10-21.7c0-0.1,0-0.1,0-0.2c0-0.1,0-0.3,0-0.4
			c0.1-3.3,2.1-6,5-7.2c4-1.7,7.7,1.4,8.4,1.9c7.9,5.6,16.2,10.8,24.8,15.5c0.1,0,0.1,0.1,0.2,0.1c5.2,2.9,10.6,5.5,16.1,8
			c6.9,3.1,13.9,5.9,21.1,8.3c0,0,0,0,0.1,0c0.9,0.3,1.8,0.6,2.7,0.9c0.5,0.2,0.9,0.3,1.4,0.5c0,0,0.1,0,0.1,0
			c11.8,4.4,21.8,12.3,28.8,22.5c0,0,0,0,0,0c1.2,2,2.4,4,3.6,6c0,0,0,0,0,0.1c0,0,0,0,0,0c4.9,7.9,10.3,15.4,16.1,22.6
			c1.5,2,3.1,3.9,4.8,5.8h0C278.3,418.1,292.2,431.1,310.5,443.5z"/>
	</g>
	<path class="st6" d="M468,289.7c-0.8,6.4-4.1,17.6-4.7,19.5c-9.3,27.3-21.6,47.4-44.3,70.4c-15.6,15.8-38.8,32.2-58.3,43.3
		c-12.8,7.4-27.6,13.4-42.3,18.3c-16-11.5-30.5-24.9-43.2-39.9h0c-1.6-1.9-3.2-3.8-4.8-5.8c-5.8-7.2-11.1-14.8-16.1-22.6
		c0,0,0,0,0,0c0,0,0,0,0-0.1c-0.8-1.2-1.5-2.5-2.3-3.7c0.5-0.8,0.9-1.5,1.4-2.3c0,0,0,0,0,0c7-10.2,17.1-18.1,28.8-22.5
		c0,0,0.1,0,0.1,0c0.5-0.2,0.9-0.3,1.4-0.5c0.9-0.3,1.8-0.6,2.7-0.9c0,0,0,0,0.1,0c7.2-2.5,14.2-5.3,21.1-8.4
		c5.5-2.5,10.9-5.1,16.1-8c0.1,0,0.1-0.1,0.2-0.1c8.6-4.7,16.9-9.9,24.8-15.5c0.8-0.5,4.4-3.6,8.4-1.9c2.9,1.1,5,3.9,5,7.1
		c0,0.1,0,0.3,0,0.4c0,0.1,0,0.1,0,0.2c-0.2,8.6-4,16.3-9.9,21.7c-0.4,0.4-0.8,0.7-1.3,1.1c0,0,0,0,0,0c-3,2.6-6,5.1-9.1,7.6
		c-1.5,1.2-3,2.3-4.5,3.5c-3.2,2.4-6.5,4.8-9.8,7c-7.8,5.3-15.9,10.1-24.4,14.5c0,0,0,0,0,0c-0.8,0.2-1.6,0.6-2.2,1.1c0,0,0,0,0,0
		c-1.3,1.1-2.2,2.8-2.2,4.6c0,2.4,1.4,4.4,3.4,5.4c0,0,0.1,0,0.1,0c0.4,0.2,0.9,0.4,1.4,0.5c0,0,0,0,0,0c2.8,0.8,5.8,1.3,8.8,1.3
		c4.2,0,8.2-0.9,11.9-2.4c9.3-3.9,18.3-8.3,27-13.3c1.1-0.6,2.1-1.2,3.2-1.8c8.9-5.3,17.4-11.1,25.5-17.4
		c14.8-11.5,28.2-24.6,40-39.1c0.1-0.1,0.1-0.2,0.2-0.3c9.2-11.3,16.5-22,23.6-34.9c0,0,1.1-2.1,2.1-3.4c1-1.3,2.7-2.3,4.7-2.3
		c3.5,0,6.3,2.8,6.3,6.3c0,0-0.2,1.4-0.3,2c0,0,0,0,0,0c-2.5,13.3-6.2,26.2-10.9,38.5v0c-0.1,0.2-0.1,0.3-0.2,0.5
		c-7,18-16.8,34.1-28.6,48.7c7.2-7.6,12.5-13.8,14.5-16.5c5.4-7.4,14.3-24.4,17.8-33.4c3-7.8,8.5-26.6,10.8-40.3v-0.1
		c0.1-0.5,0.2-1,0.3-1.5c0,0,0,0,0,0c0.5-1.4,1.7-2.4,3.2-2.4c1.7,0,3.4,1.7,4.2,3.7C468.8,278.6,468.7,284.5,468,289.7z"/>
	<rect x="525.8" y="126.9" class="st7" width="702.5" height="272.4"/>
	<text transform="matrix(1 0 0 1 525.8154 223.0574)" class="st6"><tspan x="0" y="0" class="st8 st9 st10 st11">BACK</tspan><tspan x="365.3" y="0" class="st8 st9 st10 st11">-</tspan><tspan x="0" y="123" class="st8 st9 st10 st11">YARD </tspan></text>
	<g>
		<path class="st12" d="M535.6,126.9h36.1c9.2,0.1,16,2.5,20.6,7.1c4.6,4.7,7,10.9,7,18.7c0.1,4-0.8,7.7-2.7,11.3
			c-1,1.7-2.4,3.3-4.2,4.9c-1.8,1.6-4.1,3.1-6.8,4.4v0.3c5.1,1.4,8.9,4.1,11.5,8.2c2.4,4.3,3.6,8.9,3.6,13.9
			c-0.1,8.3-2.6,14.9-7.5,19.7c-4.9,5.1-11,7.6-18.3,7.6h-39.2V126.9z M549.7,139.9v27.6h20.4c5.2,0,8.9-1.4,11.4-4.2
			c2.5-2.6,3.7-5.8,3.7-9.7c0-3.9-1.2-7.2-3.7-9.9c-2.4-2.5-6.2-3.8-11.4-3.9H549.7z M549.7,180.4v29h21.8c5.2-0.1,9.1-1.6,11.5-4.4
			c2.4-2.8,3.6-6.2,3.6-10c0-4-1.2-7.4-3.6-10.2c-2.4-2.8-6.3-4.2-11.5-4.3H549.7z"/>
		<path class="st12" d="M675.8,201.6h-35.3l-7.2,21.5h-14.9l33.8-96.1h11.8l33.8,96.1H683L675.8,201.6z M671.8,188.7l-13.5-42h-0.3
			l-13.5,42H671.8z"/>
		<path class="st12" d="M780.9,196.2c-2,8.9-5.9,15.8-11.7,20.5c-5.9,4.7-12.9,7.1-21,7.1c-7.3-0.2-13.4-2-18.3-5.5
			c-5-3.4-8.6-7.3-10.9-11.7c-0.7-1.5-1.3-2.8-1.9-4.2c-0.5-1.4-0.9-3.1-1.3-5.1c-0.6-3.9-1-11.3-1-22.3c0-11.2,0.3-18.6,1-22.4
			c0.7-3.8,1.7-6.8,3.1-9.2c2.3-4.4,5.9-8.4,10.9-11.9c4.9-3.5,11-5.3,18.3-5.4c9,0.1,16.3,2.8,22,8.2c5.7,5.4,9.2,12.2,10.7,20.2
			h-15c-1.2-3.9-3.2-7.2-6.3-9.9c-3.2-2.6-7-3.9-11.5-4c-3.3,0.1-6.2,0.8-8.6,2c-2.4,1.3-4.4,3-5.9,5c-1.8,2.1-3,4.7-3.6,8
			c-0.7,3.4-1,9.9-1,19.4c0,9.5,0.3,15.9,1,19.2c0.6,3.3,1.8,6.1,3.6,8.1c1.5,2,3.5,3.6,5.9,4.8c2.4,1.5,5.2,2.2,8.6,2.2
			c7.9,0,13.9-4.4,17.8-13.1H780.9z"/>
		<path class="st12" d="M803.3,126.9h14.1v49.5h0.3l38.3-49.5h16.7l-29.8,37.9l33,58.2h-16.7l-25.4-47l-16.4,17.7v29.3h-14.1V126.9z
			"/>
		<path class="st12" d="M914.7,183.5l-28-56.6h14.9l19.7,42.6l19.7-42.6H956l-28,56.6v39.6h-13.3V183.5z"/>
		<path class="st12" d="M1013.8,201.6h-35.3l-7.1,21.5h-14.9l33.8-96.1h11.8l33.8,96.1H1021L1013.8,201.6z M1009.8,188.7l-13.5-42
			H996l-13.5,42H1009.8z"/>
		<path class="st12" d="M1058.5,126.9h36.4c7.8,0,14.1,2.1,19,6.3c5.9,4.8,9,11.6,9.2,20.5c-0.2,13.1-6.2,21.9-18,26.6l21.5,42.6
			H1110l-19.3-41.1h-18.1v41.1h-14.1V126.9z M1072.6,169.1h21.4c5.3-0.1,9.3-1.7,11.9-4.8c2.6-2.9,3.9-6.4,3.9-10.6
			c-0.1-5-1.6-8.7-4.7-10.9c-2.4-2-5.8-3-10.4-3h-22.1V169.1z"/>
		<path class="st12" d="M1151,126.9h32.6c12.6,0.1,22.1,5.5,28.4,16.2c2.3,3.6,3.7,7.4,4.3,11.3c0.5,4,0.7,10.8,0.7,20.5
			c0,10.3-0.4,17.5-1.1,21.6c-0.3,2.1-0.9,3.9-1.5,5.5c-0.7,1.6-1.6,3.2-2.6,4.9c-2.7,4.5-6.5,8.3-11.4,11.2
			c-4.8,3.2-10.7,4.7-17.7,4.7H1151V126.9z M1165.1,209.4h16.9c7.9,0,13.7-2.8,17.3-8.4c1.6-2.1,2.6-4.7,3-7.9
			c0.4-3.1,0.6-9,0.6-17.6c0-8.4-0.2-14.4-0.6-18c-0.5-3.6-1.7-6.5-3.6-8.8c-3.9-5.6-9.5-8.3-16.6-8.1h-16.9V209.4z"/>
		<path class="st12" d="M535.6,249.9h36.1c9.2,0.1,16,2.5,20.6,7.1c4.6,4.7,7,10.9,7,18.7c0.1,4-0.8,7.7-2.7,11.3
			c-1,1.7-2.4,3.3-4.2,4.9c-1.8,1.6-4.1,3.1-6.8,4.4v0.3c5.1,1.4,8.9,4.1,11.5,8.2c2.4,4.3,3.6,8.9,3.6,13.9
			c-0.1,8.3-2.6,14.9-7.5,19.7c-4.9,5.1-11,7.6-18.3,7.6h-39.2V249.9z M549.7,262.9v27.6h20.4c5.2,0,8.9-1.4,11.4-4.2
			c2.5-2.6,3.7-5.8,3.7-9.7c0-3.9-1.2-7.2-3.7-9.9c-2.4-2.5-6.2-3.8-11.4-3.9H549.7z M549.7,303.4v29h21.8c5.2-0.1,9.1-1.6,11.5-4.4
			c2.4-2.8,3.6-6.2,3.6-10c0-4-1.2-7.4-3.6-10.2c-2.4-2.8-6.3-4.2-11.5-4.3H549.7z"/>
		<path class="st12" d="M626.4,249.9h14.1v62c0.1,6.6,1.9,11.5,5.5,15c3.5,3.6,8,5.4,13.5,5.4c5.5,0,10-1.8,13.6-5.4
			c3.5-3.4,5.3-8.4,5.4-15v-62h14.1v63.5c-0.2,10.1-3.3,18.1-9.5,24.1c-6.2,6.1-14.1,9.2-23.6,9.3c-9.3-0.1-17.1-3.2-23.4-9.3
			c-6.4-5.9-9.6-13.9-9.7-24V249.9z"/>
		<path class="st12" d="M720.1,298c0-11.2,0.3-18.7,1-22.5c0.7-3.8,1.7-6.8,3.1-9.2c2.3-4.4,5.9-8.4,10.8-11.8
			c4.9-3.5,11-5.3,18.3-5.4c7.4,0.1,13.6,1.9,18.5,5.4c4.9,3.5,8.4,7.4,10.6,11.9c1.6,2.3,2.7,5.4,3.3,9.2
			c0.6,3.8,0.8,11.3,0.8,22.4c0,11-0.3,18.4-0.8,22.3c-0.6,3.9-1.7,7-3.3,9.3c-2.2,4.4-5.7,8.3-10.6,11.7
			c-4.9,3.5-11.1,5.4-18.5,5.5c-7.3-0.2-13.4-2-18.3-5.5c-5-3.4-8.6-7.3-10.8-11.7c-0.7-1.5-1.3-2.8-1.8-4.2
			c-0.5-1.4-0.9-3.1-1.3-5.1C720.4,316.4,720.1,309,720.1,298z M734.2,298c0,9.5,0.3,15.9,1,19.2c0.6,3.3,1.8,6.1,3.6,8.1
			c1.5,2,3.5,3.6,5.9,4.8c2.4,1.5,5.2,2.2,8.6,2.2c3.4,0,6.3-0.7,8.8-2.2c2.3-1.2,4.2-2.8,5.6-4.8c1.8-2.1,3.1-4.8,3.8-8.1
			c0.6-3.3,1-9.8,1-19.2c0-9.5-0.3-15.9-1-19.4c-0.7-3.3-1.9-5.9-3.8-8c-1.4-2-3.3-3.6-5.6-5c-2.5-1.3-5.4-2-8.8-2
			c-3.3,0.1-6.2,0.8-8.6,2c-2.4,1.3-4.4,3-5.9,5c-1.8,2.1-3,4.7-3.6,8C734.5,282.1,734.2,288.5,734.2,298z"/>
		<path class="st12" d="M827.9,306.5l-28-56.6h14.9l19.7,42.6l19.7-42.6h14.9l-28,56.6v39.6h-13.3V306.5z"/>
		<path class="st12" d="M890.5,322.8c7.4,6.3,16.2,9.5,26.5,9.6c12.1-0.2,18.2-4.6,18.4-13.4c0.1-7.2-4-11.5-12.1-12.9
			c-3.7-0.5-7.9-1.1-12.3-1.8c-8-1.4-14.1-4.4-18.3-9.2c-4.3-4.9-6.5-10.8-6.5-17.8c0-8.4,2.7-15.2,8.1-20.3
			c5.2-5.1,12.7-7.7,22.3-7.8c11.6,0.3,21.6,3.6,30.2,9.9l-7.9,12c-7-4.8-14.7-7.2-23.1-7.4c-4.3,0-8,1.1-10.9,3.4
			c-3,2.3-4.6,5.8-4.7,10.4c0,2.8,1,5.3,3.1,7.5c2.1,2.3,5.4,3.9,10,4.8c2.6,0.4,6,0.9,10.5,1.5c8.7,1.2,15.2,4.5,19.3,9.7
			c4.1,5.1,6.2,11.1,6.2,17.9c-0.5,18.4-11.4,27.7-32.7,28c-13.8,0-25.6-4.4-35.5-13.1L890.5,322.8z"/>
	</g>
</g>
<g id="White" class="st4">
	<rect x="-86.7" y="-65.6" class="st13" width="1384" height="600"/>
	<rect x="-86.7" y="-65.6" class="st12" width="1384" height="600"/>
	<path class="st14" d="M203.8,14.8l-46.3,29C135.6,54.1,115.8,68,98.6,85.2c-19.1,19.1-34,41.3-44.5,66
		C43.2,176.8,37.8,204,37.8,232c0,1.5,0,3.1,0,4.6c-4.5,2.4-8.9,5-13.2,7.7c-0.2-4.1-0.3-8.2-0.3-12.4
		C24.3,124.1,101.6,34.3,203.8,14.8z"/>
	<path class="st14" d="M466.5,230.5c-4.1-1.4-8.7-2.5-13.5-3.2c-0.6-26.4-6.1-51.9-16.3-76c-10.2-24.1-24.6-45.7-43-64.5l-9.1-26.5
		C434.2,100.5,466.1,161.8,466.5,230.5z"/>
	<path class="st14" d="M359.8,226.3c-1.2,3.3-4.4,8.9-9.6,15.4c-15.2,2.6-29.6,4.5-39.9,4.5c-35.2,0-61.8-5.8-90.6-12.8
		c-40-9.2-61.4-12.9-76.2-14.4c-11.7-31.5-10.3-62.6-7.1-71.7c0,0,78.1,33,110,44.2C278.3,202.8,359.8,226.3,359.8,226.3z"/>
	<g class="st6">
		<path class="st15" d="M421.7,207.4l-0.1,0.5c-0.6,2.5-4.8,11.1-10.4,15.9c-4.7,4-8.7,6.7-10.3,7l-0.2,0
			c-2.2,0-116.6-33.6-151.9-46.1c-34-12-146-58.1-147.3-59.7c-1.1-1.2-2.5-5.9-3.6-11.9c-1.4-7.3,0.8-16.6,1.9-18.9
			c0.2-0.4,0.6-0.7,1.1-0.7c0.9,0,3,1,10.9,4.9c4,2,8.6,4.2,13.3,6.4c13.8,6.4,100.7,41.1,133.4,52.6
			c32.7,11.6,122.1,39.2,136.8,42.8c5,1.2,10,2.4,14.4,3.3c10.7,2.4,11.4,2.6,11.9,3.4L421.7,207.4z"/>
	</g>
	<g class="st6">
		<path class="st15" d="M409.3,197.6c-0.2,0.2-0.5,0.3-0.8,0.3c-0.1,0-0.2,0-0.3,0c-0.8-0.2-83.4-23.8-146.6-46.1
			c-63.1-22.3-142.2-55.8-143-56.1c-0.4-0.2-0.6-0.5-0.7-0.9c0-0.4,0.2-0.8,0.5-1l91-61.3c0.3-0.2,0.7-0.2,1-0.1
			c0,0,70.5,24.9,83.1,29.4l83.1,29.3c0.3,0.1,0.6,0.4,0.7,0.7l32.3,104.9C409.7,196.9,409.6,197.3,409.3,197.6z"/>
	</g>
	<g class="st6">
		<path class="st15" d="M378.7,85.1c-0.2,0.2-0.5,0.3-0.8,0.3c-0.1,0-0.2,0-0.3-0.1l-71.6-25.3c-0.3-0.1-0.5-0.3-0.6-0.6
			c-0.1-0.3-0.1-0.6,0-0.9c0,0,1.5-3.6,0-7.2c-1.1-2.5-3.5-4.5-7.2-5.8c-1.8-0.6-3.5-1-5.1-1c-6.7,0-8.6,6.2-8.7,6.5
			c-0.1,0.3-0.3,0.5-0.5,0.7c-0.3,0.1-0.6,0.2-0.8,0.1l-71.6-25.3c-0.4-0.1-0.7-0.5-0.7-0.9c0-0.4,0.1-0.8,0.5-1l39.2-24.6
			c0.3-0.2,0.6-0.2,0.9-0.1l112,39.6c0.3,0.1,0.5,0.3,0.7,0.7l15,43.7C379,84.4,378.9,84.8,378.7,85.1z"/>
	</g>
	<path class="st14" d="M482.4,265.6c-0.9,0.4-2.5,0.8-4.7,1.2c-2,0.4-4.4,0.9-7,1.6c-2.1-2.1-4.8-3.4-7.5-3.4
		c-1.7,0-3.3,0.4-4.7,1.2c-2.2-1.8-5-2.8-8.1-2.8c-3.9,0-7.6,1.9-10,4.9c-1.2,1.7-2.3,3.7-2.7,4.3c-3.9,7.1-7.9,13.6-12.5,20.1
		c-6.4,4.2-12.5,8.3-17.7,11.9c-5.7,3.8-10.5,7.1-13.8,9.2c-7,4.4-16.2,8.5-26.4,12.1c0.8-2.9,1.3-5.9,1.4-9c0-0.2,0-0.4,0-0.6
		c0-0.2,0-0.5,0-0.7c-0.2-5.8-3.7-10.9-9.2-13c-1.6-0.7-3.3-1-5-1c-4.9,0-8.5,2.7-9.8,3.7c-7.6,5.4-15.6,10.4-24,15l0,0l-0.3,0.2
		c-5,2.7-10.2,5.3-15.7,7.8c-6.4,2.9-13,5.5-19.5,7.8l-0.2,0c-25.8-4.8-52.5-17.1-68.3-24.5l-1.1-0.5c-3.8-1.8-9-4.5-15.6-8.1
		c-24.8-13.3-66.4-35.7-102.1-38.7c-2.2-0.2-4.9-0.5-7.7-0.8c-5.9-0.7-12.5-1.4-17.2-1.4c-9.4,0-18.1,0.7-26.7,2
		c-1.3-0.5-2.6-0.7-4-0.7c-3,0-5.9,1.1-8.1,2.8c-1.4-0.8-3-1.2-4.7-1.2c-3.3,0-6.4,1.7-8.5,4.5c-6.6,1.8-13.3,3.9-20.3,6.2
		c-0.2,0.1-0.5,0-0.7-0.2c-0.2-0.2-0.2-0.5-0.1-0.8c6.4-11.2,21-22.3,40-30.6c22.5-9.7,49.8-15.1,77.1-15.1c3.6,0,7.2,0.1,10.8,0.3
		c37.8,1.9,83.8,18.9,105.9,27.1c2.1,0.8,4.1,1.5,5.7,2.1c32,11.6,66.5,22.4,102.1,22.4c29.4,0,58.2-5.2,85.5-15.5c0,0,0.1,0,0.1,0
		c11.8-4.5,23.1-6.8,33.6-6.8c13.7,0,21.7,4,22.1,5.7C483,265,482.8,265.4,482.4,265.6z"/>
	<path class="st14" d="M500.4,260.9c0,0.4-0.3,0.6-0.7,0.7c-0.1,0-0.2,0-0.3-0.1c-15.5-7.2-24.7-10.6-41.9-10.6
		c-11.2,0-22.3,2.9-30.8,5.4c-1.6,0.5-3.6,1.1-5.9,1.8c-12.4,3.8-33.1,10.2-52.7,13.2c-6.9,1-14.5,1.6-22.5,1.6
		c-47.3,0-98.4-17.4-127.7-32.3c-0.3-0.2-0.4-0.5-0.3-0.8c0.1-0.3,0.5-0.5,0.8-0.4c29.1,7.1,56.1,12.9,92,12.9
		c22.1,0,62.5-8.5,89.2-14.1c9.7-2,18-3.8,23.2-4.7c5.1-0.9,10.3-1.3,15.6-1.3c12.7,0,21.9,2.5,26.3,4c15.6,5.3,24.2,12.3,35.5,24.2
		C500.3,260.5,500.4,260.7,500.4,260.9z"/>
	<path class="st14" d="M19.6,297.3c-10,1.5-14.9,3.1-18.9,0.9c0,0,4.8-7.8,17.1-15.2c0,2.7,0.3,5.4,0.6,7.7
		C18.6,292.6,19,294.9,19.6,297.3z"/>
	<path class="st14" d="M409.9,312.5c-10.3,11.9-21.7,22.8-34.1,32.4c-7.8,6.1-16.2,11.8-24.8,16.9c-1,0.6-2,1.2-3.1,1.8
		c-8.3,4.8-17.2,9.1-26.3,12.9c-2.9,1.2-6,1.9-9.3,1.9c-1.9,0-3.7-0.2-5.5-0.6l0.3-0.3c8.4-4.4,16.5-9.3,24.2-14.4
		c3.4-2.3,6.8-4.7,10.1-7.2c1.6-1.2,3.1-2.4,4.6-3.6c3.1-2.4,6.2-5,9.4-7.8l0.5-0.4c0.3-0.3,0.6-0.5,0.9-0.8c2.2-2,4.1-4.2,5.7-6.6
		C384,329.3,399.7,319.5,409.9,312.5z"/>
	<path class="st14" d="M269.7,342.8c-8.2,4.7-15.3,11.2-20.9,19l-2,3.2c0,0-0.1,0.2-0.3,0.4c-0.1-0.1-0.2-0.3-0.3-0.4l-2-3.2
		c-7.8-10.8-18.4-18.9-30.8-23.6l-1.8-0.6c0,0-1.3-0.4-1.7-0.6l-2.4-0.8c-6.5-2.2-13-4.9-19.5-7.8c-5.4-2.5-10.7-5.1-15.7-7.8
		l-0.4-0.2l-0.1,0c-8.3-4.5-16.3-9.5-24-15c-1.2-0.9-4.8-3.6-9.7-3.6c-1.7,0-3.4,0.3-5,1c-5.4,2.1-9,7.2-9.1,13c0,0.3,0,0.5,0,0.7
		c-19.7-9.9-37.8-17.4-53.1-19.2c-0.1,0-0.1,0-0.2,0c-5.9-8-10.9-15.9-15.7-24.5c-0.2-0.3-0.5-1-1-1.8c7.9-1,17-1.4,27.1-0.8
		C138,273.7,208.2,327.6,269.7,342.8z"/>
	<path class="st14" d="M186.1,377.7L186.1,377.7c-1.8,0.5-3.6,0.7-5.5,0.7c-3.2,0-6.3-0.6-9.3-1.9c-9-3.8-17.9-8.1-26.3-12.9
		c-1-0.6-2-1.2-3.1-1.8c-8.6-5.1-16.9-10.7-24.8-16.9c-13.8-10.7-26.3-22.8-37.4-36.2c0.9,0.2,1.8,0.4,2.8,0.6
		c12.8,2.9,27.9,11.4,44.9,21.9c2.1,4.6,5.1,8.7,8.8,12.1c0.3,0.3,0.6,0.5,0.9,0.8l0.4,0.4c3.2,2.8,6.4,5.4,9.4,7.8
		c1.5,1.2,3.1,2.4,4.6,3.6c3.2,2.4,6.7,4.9,10.1,7.2c7.7,5.2,15.8,10,24.2,14.4L186.1,377.7z"/>
	<g class="st6">
		<path class="st15" d="M310.5,443.5c-19.4,5.4-34.7,9.7-60,9.7c-26.2,0-46.7-3.6-53.1-5.5c0,0-0.1,0-0.1,0
			c-3.9-0.9-11.2-2.9-8.9-2.2c-19.1-5.4-39.2-12.8-56.1-22.5c-19.4-11.1-42.7-27.5-58.3-43.3c-22.7-23-35-43.1-44.3-70.4
			c-0.6-1.9-3.9-13.1-4.7-19.5c-0.7-5.2-0.8-11.1,0.5-14.3c0.8-2,2.5-3.7,4.2-3.7c1.5,0,2.7,1.1,3.2,2.4c0,0,0,0,0,0
			c0.1,0.5,0.2,1,0.3,1.5v0.1c2.3,13.8,7.8,32.5,10.8,40.3c3.5,9.1,12.4,26,17.8,33.4c2,2.7,7.4,9,14.5,16.5
			c-11.8-14.6-21.6-30.7-28.7-48.7c-0.1-0.2-0.1-0.3-0.2-0.5v0c-4.8-12.3-8.5-25.2-11-38.5c0,0,0,0,0,0c-0.1-0.6-0.3-2-0.3-2
			c0-3.5,2.8-6.3,6.3-6.3c2,0,3.7,1,4.7,2.3c1,1.4,2.1,3.4,2.1,3.4c7.1,12.9,14.4,23.6,23.6,34.9c0.1,0.1,0.1,0.2,0.2,0.3
			c11.8,14.5,25.2,27.6,40,39.1c8.1,6.3,16.6,12.1,25.5,17.3c1.1,0.6,2.1,1.2,3.2,1.8c8.7,5,17.7,9.4,27,13.3
			c3.6,1.5,7.7,2.4,11.9,2.4c3.1,0,6-0.5,8.8-1.3c0,0,0,0,0,0c0.5-0.1,0.9-0.3,1.4-0.5c0,0,0.1,0,0.1,0c2-1,3.4-3,3.4-5.4
			c0-1.9-0.9-3.5-2.2-4.6c0,0,0,0,0,0c-0.7-0.5-1.4-0.9-2.2-1.1c0,0,0,0,0,0c-8.4-4.4-16.6-9.2-24.4-14.5c-3.3-2.3-6.6-4.6-9.9-7
			c-1.5-1.1-3-2.3-4.5-3.5c-3.1-2.4-6.1-5-9.1-7.6c0,0,0,0,0,0c-0.4-0.4-0.8-0.7-1.3-1.1c-5.9-5.4-9.7-13.1-10-21.7
			c0-0.1,0-0.1,0-0.2c0-0.1,0-0.3,0-0.4c0.1-3.3,2.1-6,5-7.2c4-1.7,7.7,1.4,8.4,1.9c7.9,5.6,16.2,10.8,24.8,15.5
			c0.1,0,0.1,0.1,0.2,0.1c5.2,2.9,10.6,5.5,16.1,8c6.9,3.1,13.9,5.9,21.1,8.3c0,0,0,0,0.1,0c0.9,0.3,1.8,0.6,2.7,0.9
			c0.5,0.2,0.9,0.3,1.4,0.5c0,0,0.1,0,0.1,0c11.8,4.4,21.8,12.3,28.8,22.5c0,0,0,0,0,0c1.2,2,2.4,4,3.6,6c0,0,0,0,0,0.1c0,0,0,0,0,0
			c4.9,7.9,10.3,15.4,16.1,22.6c1.5,2,3.1,3.9,4.8,5.8h0C278.3,418.1,292.2,431.1,310.5,443.5z"/>
	</g>
	<path class="st14" d="M468,289.7c-0.8,6.4-4.1,17.6-4.7,19.5c-9.3,27.3-21.6,47.4-44.3,70.4c-15.6,15.8-38.8,32.2-58.3,43.3
		c-12.8,7.4-27.6,13.4-42.3,18.3c-16-11.5-30.5-24.9-43.2-39.9h0c-1.6-1.9-3.2-3.8-4.8-5.8c-5.8-7.2-11.1-14.8-16.1-22.6
		c0,0,0,0,0,0c0,0,0,0,0-0.1c-0.8-1.2-1.5-2.5-2.3-3.7c0.5-0.8,0.9-1.5,1.4-2.3c0,0,0,0,0,0c7-10.2,17.1-18.1,28.8-22.5
		c0,0,0.1,0,0.1,0c0.5-0.2,0.9-0.3,1.4-0.5c0.9-0.3,1.8-0.6,2.7-0.9c0,0,0,0,0.1,0c7.2-2.5,14.2-5.3,21.1-8.4
		c5.5-2.5,10.9-5.1,16.1-8c0.1,0,0.1-0.1,0.2-0.1c8.6-4.7,16.9-9.9,24.8-15.5c0.8-0.5,4.4-3.6,8.4-1.9c2.9,1.1,5,3.9,5,7.1
		c0,0.1,0,0.3,0,0.4c0,0.1,0,0.1,0,0.2c-0.2,8.6-4,16.3-9.9,21.7c-0.4,0.4-0.8,0.7-1.3,1.1c0,0,0,0,0,0c-3,2.6-6,5.1-9.1,7.6
		c-1.5,1.2-3,2.3-4.5,3.5c-3.2,2.4-6.5,4.8-9.8,7c-7.8,5.3-15.9,10.1-24.4,14.5c0,0,0,0,0,0c-0.8,0.2-1.6,0.6-2.2,1.1c0,0,0,0,0,0
		c-1.3,1.1-2.2,2.8-2.2,4.6c0,2.4,1.4,4.4,3.4,5.4c0,0,0.1,0,0.1,0c0.4,0.2,0.9,0.4,1.4,0.5c0,0,0,0,0,0c2.8,0.8,5.8,1.3,8.8,1.3
		c4.2,0,8.2-0.9,11.9-2.4c9.3-3.9,18.3-8.3,27-13.3c1.1-0.6,2.1-1.2,3.2-1.8c8.9-5.3,17.4-11.1,25.5-17.4
		c14.8-11.5,28.2-24.6,40-39.1c0.1-0.1,0.1-0.2,0.2-0.3c9.2-11.3,16.5-22,23.6-34.9c0,0,1.1-2.1,2.1-3.4c1-1.3,2.7-2.3,4.7-2.3
		c3.5,0,6.3,2.8,6.3,6.3c0,0-0.2,1.4-0.3,2c0,0,0,0,0,0c-2.5,13.3-6.2,26.2-10.9,38.5v0c-0.1,0.2-0.1,0.3-0.2,0.5
		c-7,18-16.8,34.1-28.6,48.7c7.2-7.6,12.5-13.8,14.5-16.5c5.4-7.4,14.3-24.4,17.8-33.4c3-7.8,8.5-26.6,10.8-40.3v-0.1
		c0.1-0.5,0.2-1,0.3-1.5c0,0,0,0,0,0c0.5-1.4,1.7-2.4,3.2-2.4c1.7,0,3.4,1.7,4.2,3.7C468.8,278.6,468.7,284.5,468,289.7z"/>
	<rect x="525.8" y="126.9" class="st7" width="702.5" height="272.4"/>
	<text transform="matrix(1 0 0 1 525.8154 223.0574)" class="st6"><tspan x="0" y="0" class="st15 st9 st10 st11">BACK</tspan><tspan x="365.3" y="0" class="st15 st9 st10 st11">-</tspan><tspan x="0" y="123" class="st15 st9 st10 st11">YARD </tspan></text>
	<g>
		<path class="st14" d="M535.6,126.9h36.1c9.2,0.1,16,2.5,20.6,7.1c4.6,4.7,7,10.9,7,18.7c0.1,4-0.8,7.7-2.7,11.3
			c-1,1.7-2.4,3.3-4.2,4.9c-1.8,1.6-4.1,3.1-6.8,4.4v0.3c5.1,1.4,8.9,4.1,11.5,8.2c2.4,4.3,3.6,8.9,3.6,13.9
			c-0.1,8.3-2.6,14.9-7.5,19.7c-4.9,5.1-11,7.6-18.3,7.6h-39.2V126.9z M549.7,139.9v27.6h20.4c5.2,0,8.9-1.4,11.4-4.2
			c2.5-2.6,3.7-5.8,3.7-9.7c0-3.9-1.2-7.2-3.7-9.9c-2.4-2.5-6.2-3.8-11.4-3.9H549.7z M549.7,180.4v29h21.8c5.2-0.1,9.1-1.6,11.5-4.4
			c2.4-2.8,3.6-6.2,3.6-10c0-4-1.2-7.4-3.6-10.2c-2.4-2.8-6.3-4.2-11.5-4.3H549.7z"/>
		<path class="st14" d="M675.8,201.6h-35.3l-7.2,21.5h-14.9l33.8-96.1h11.8l33.8,96.1H683L675.8,201.6z M671.8,188.7l-13.5-42h-0.3
			l-13.5,42H671.8z"/>
		<path class="st14" d="M780.9,196.2c-2,8.9-5.9,15.8-11.7,20.5c-5.9,4.7-12.9,7.1-21,7.1c-7.3-0.2-13.4-2-18.3-5.5
			c-5-3.4-8.6-7.3-10.9-11.7c-0.7-1.5-1.3-2.8-1.9-4.2c-0.5-1.4-0.9-3.1-1.3-5.1c-0.6-3.9-1-11.3-1-22.3c0-11.2,0.3-18.6,1-22.4
			c0.7-3.8,1.7-6.8,3.1-9.2c2.3-4.4,5.9-8.4,10.9-11.9c4.9-3.5,11-5.3,18.3-5.4c9,0.1,16.3,2.8,22,8.2c5.7,5.4,9.2,12.2,10.7,20.2
			h-15c-1.2-3.9-3.2-7.2-6.3-9.9c-3.2-2.6-7-3.9-11.5-4c-3.3,0.1-6.2,0.8-8.6,2c-2.4,1.3-4.4,3-5.9,5c-1.8,2.1-3,4.7-3.6,8
			c-0.7,3.4-1,9.9-1,19.4c0,9.5,0.3,15.9,1,19.2c0.6,3.3,1.8,6.1,3.6,8.1c1.5,2,3.5,3.6,5.9,4.8c2.4,1.5,5.2,2.2,8.6,2.2
			c7.9,0,13.9-4.4,17.8-13.1H780.9z"/>
		<path class="st14" d="M803.3,126.9h14.1v49.5h0.3l38.3-49.5h16.7l-29.8,37.9l33,58.2h-16.7l-25.4-47l-16.4,17.7v29.3h-14.1V126.9z
			"/>
		<path class="st14" d="M914.7,183.5l-28-56.6h14.9l19.7,42.6l19.7-42.6H956l-28,56.6v39.6h-13.3V183.5z"/>
		<path class="st14" d="M1013.8,201.6h-35.3l-7.1,21.5h-14.9l33.8-96.1h11.8l33.8,96.1H1021L1013.8,201.6z M1009.8,188.7l-13.5-42
			H996l-13.5,42H1009.8z"/>
		<path class="st14" d="M1058.5,126.9h36.4c7.8,0,14.1,2.1,19,6.3c5.9,4.8,9,11.6,9.2,20.5c-0.2,13.1-6.2,21.9-18,26.6l21.5,42.6
			H1110l-19.3-41.1h-18.1v41.1h-14.1V126.9z M1072.6,169.1h21.4c5.3-0.1,9.3-1.7,11.9-4.8c2.6-2.9,3.9-6.4,3.9-10.6
			c-0.1-5-1.6-8.7-4.7-10.9c-2.4-2-5.8-3-10.4-3h-22.1V169.1z"/>
		<path class="st14" d="M1151,126.9h32.6c12.6,0.1,22.1,5.5,28.4,16.2c2.3,3.6,3.7,7.4,4.3,11.3c0.5,4,0.7,10.8,0.7,20.5
			c0,10.3-0.4,17.5-1.1,21.6c-0.3,2.1-0.9,3.9-1.5,5.5c-0.7,1.6-1.6,3.2-2.6,4.9c-2.7,4.5-6.5,8.3-11.4,11.2
			c-4.8,3.2-10.7,4.7-17.7,4.7H1151V126.9z M1165.1,209.4h16.9c7.9,0,13.7-2.8,17.3-8.4c1.6-2.1,2.6-4.7,3-7.9
			c0.4-3.1,0.6-9,0.6-17.6c0-8.4-0.2-14.4-0.6-18c-0.5-3.6-1.7-6.5-3.6-8.8c-3.9-5.6-9.5-8.3-16.6-8.1h-16.9V209.4z"/>
		<path class="st14" d="M535.6,249.9h36.1c9.2,0.1,16,2.5,20.6,7.1c4.6,4.7,7,10.9,7,18.7c0.1,4-0.8,7.7-2.7,11.3
			c-1,1.7-2.4,3.3-4.2,4.9c-1.8,1.6-4.1,3.1-6.8,4.4v0.3c5.1,1.4,8.9,4.1,11.5,8.2c2.4,4.3,3.6,8.9,3.6,13.9
			c-0.1,8.3-2.6,14.9-7.5,19.7c-4.9,5.1-11,7.6-18.3,7.6h-39.2V249.9z M549.7,262.9v27.6h20.4c5.2,0,8.9-1.4,11.4-4.2
			c2.5-2.6,3.7-5.8,3.7-9.7c0-3.9-1.2-7.2-3.7-9.9c-2.4-2.5-6.2-3.8-11.4-3.9H549.7z M549.7,303.4v29h21.8c5.2-0.1,9.1-1.6,11.5-4.4
			c2.4-2.8,3.6-6.2,3.6-10c0-4-1.2-7.4-3.6-10.2c-2.4-2.8-6.3-4.2-11.5-4.3H549.7z"/>
		<path class="st14" d="M626.4,249.9h14.1v62c0.1,6.6,1.9,11.5,5.5,15c3.5,3.6,8,5.4,13.5,5.4c5.5,0,10-1.8,13.6-5.4
			c3.5-3.4,5.3-8.4,5.4-15v-62h14.1v63.5c-0.2,10.1-3.3,18.1-9.5,24.1c-6.2,6.1-14.1,9.2-23.6,9.3c-9.3-0.1-17.1-3.2-23.4-9.3
			c-6.4-5.9-9.6-13.9-9.7-24V249.9z"/>
		<path class="st14" d="M720.1,298c0-11.2,0.3-18.7,1-22.5c0.7-3.8,1.7-6.8,3.1-9.2c2.3-4.4,5.9-8.4,10.8-11.8
			c4.9-3.5,11-5.3,18.3-5.4c7.4,0.1,13.6,1.9,18.5,5.4c4.9,3.5,8.4,7.4,10.6,11.9c1.6,2.3,2.7,5.4,3.3,9.2
			c0.6,3.8,0.8,11.3,0.8,22.4c0,11-0.3,18.4-0.8,22.3c-0.6,3.9-1.7,7-3.3,9.3c-2.2,4.4-5.7,8.3-10.6,11.7
			c-4.9,3.5-11.1,5.4-18.5,5.5c-7.3-0.2-13.4-2-18.3-5.5c-5-3.4-8.6-7.3-10.8-11.7c-0.7-1.5-1.3-2.8-1.8-4.2
			c-0.5-1.4-0.9-3.1-1.3-5.1C720.4,316.4,720.1,309,720.1,298z M734.2,298c0,9.5,0.3,15.9,1,19.2c0.6,3.3,1.8,6.1,3.6,8.1
			c1.5,2,3.5,3.6,5.9,4.8c2.4,1.5,5.2,2.2,8.6,2.2c3.4,0,6.3-0.7,8.8-2.2c2.3-1.2,4.2-2.8,5.6-4.8c1.8-2.1,3.1-4.8,3.8-8.1
			c0.6-3.3,1-9.8,1-19.2c0-9.5-0.3-15.9-1-19.4c-0.7-3.3-1.9-5.9-3.8-8c-1.4-2-3.3-3.6-5.6-5c-2.5-1.3-5.4-2-8.8-2
			c-3.3,0.1-6.2,0.8-8.6,2c-2.4,1.3-4.4,3-5.9,5c-1.8,2.1-3,4.7-3.6,8C734.5,282.1,734.2,288.5,734.2,298z"/>
		<path class="st14" d="M827.9,306.5l-28-56.6h14.9l19.7,42.6l19.7-42.6h14.9l-28,56.6v39.6h-13.3V306.5z"/>
		<path class="st14" d="M890.5,322.8c7.4,6.3,16.2,9.5,26.5,9.6c12.1-0.2,18.2-4.6,18.4-13.4c0.1-7.2-4-11.5-12.1-12.9
			c-3.7-0.5-7.9-1.1-12.3-1.8c-8-1.4-14.1-4.4-18.3-9.2c-4.3-4.9-6.5-10.8-6.5-17.8c0-8.4,2.7-15.2,8.1-20.3
			c5.2-5.1,12.7-7.7,22.3-7.8c11.6,0.3,21.6,3.6,30.2,9.9l-7.9,12c-7-4.8-14.7-7.2-23.1-7.4c-4.3,0-8,1.1-10.9,3.4
			c-3,2.3-4.6,5.8-4.7,10.4c0,2.8,1,5.3,3.1,7.5c2.1,2.3,5.4,3.9,10,4.8c2.6,0.4,6,0.9,10.5,1.5c8.7,1.2,15.2,4.5,19.3,9.7
			c4.1,5.1,6.2,11.1,6.2,17.9c-0.5,18.4-11.4,27.7-32.7,28c-13.8,0-25.6-4.4-35.5-13.1L890.5,322.8z"/>
	</g>
</g>
<g id="gray" class="st4">
	<path class="st16" d="M204.8,14.8l-46.3,29C136.6,54.1,116.8,68,99.6,85.2c-19.1,19.1-34,41.3-44.5,66
		C44.2,176.8,38.8,204,38.8,232c0,1.5,0,3.1,0,4.6c-4.5,2.4-8.9,5-13.2,7.7c-0.2-4.1-0.3-8.2-0.3-12.4
		C25.3,124.1,102.6,34.3,204.8,14.8z"/>
	<path class="st16" d="M467.5,230.5c-4.1-1.4-8.7-2.5-13.5-3.2c-0.6-26.4-6.1-51.9-16.3-76c-10.2-24.1-24.6-45.7-43-64.5l-9.1-26.5
		C435.3,100.5,467.1,161.8,467.5,230.5z"/>
	<path class="st17" d="M360.8,226.3c-1.2,3.3-4.4,8.9-9.6,15.4c-15.2,2.6-29.6,4.5-39.9,4.5c-35.2,0-61.8-5.8-90.6-12.8
		c-40-9.2-61.4-12.9-76.2-14.4c-11.7-31.5-10.3-62.6-7.1-71.7c0,0,78.1,33,110,44.2C279.3,202.8,360.8,226.3,360.8,226.3z"/>
	<g class="st6">
		<path class="st18" d="M422.7,207.4l-0.1,0.5c-0.6,2.5-4.8,11.1-10.4,15.9c-4.7,4-8.7,6.7-10.3,7l-0.2,0
			c-2.2,0-116.6-33.6-151.9-46.1c-34-12-146-58.1-147.3-59.7c-1.1-1.2-2.5-5.9-3.6-11.9c-1.4-7.3,0.8-16.6,1.9-18.9
			c0.2-0.4,0.6-0.7,1.1-0.7c0.9,0,3,1,10.9,4.9c4,2,8.6,4.2,13.3,6.4c13.8,6.4,100.7,41.1,133.4,52.6
			c32.7,11.6,122.1,39.2,136.8,42.8c5,1.2,10,2.4,14.4,3.3c10.7,2.4,11.4,2.6,11.9,3.4L422.7,207.4z"/>
	</g>
	<g class="st6">
		<path class="st18" d="M410.3,197.6c-0.2,0.2-0.5,0.3-0.8,0.3c-0.1,0-0.2,0-0.3,0c-0.8-0.2-83.4-23.8-146.6-46.1
			c-63.1-22.3-142.2-55.8-143-56.1c-0.4-0.2-0.6-0.5-0.7-0.9c0-0.4,0.2-0.8,0.5-1l91-61.3c0.3-0.2,0.6-0.2,1-0.1
			c0,0,70.5,24.9,83.1,29.4l83.1,29.3c0.3,0.1,0.6,0.4,0.7,0.7l32.3,104.9C410.7,196.9,410.6,197.3,410.3,197.6z"/>
	</g>
	<g class="st6">
		<path class="st18" d="M379.7,85.1c-0.2,0.2-0.5,0.3-0.8,0.3c-0.1,0-0.2,0-0.3-0.1l-71.6-25.3c-0.3-0.1-0.5-0.3-0.6-0.6
			c-0.1-0.3-0.1-0.6,0-0.9c0,0,1.5-3.6,0-7.2c-1.1-2.5-3.5-4.5-7.2-5.8c-1.8-0.6-3.5-1-5.1-1c-6.7,0-8.6,6.2-8.7,6.5
			c-0.1,0.3-0.3,0.5-0.5,0.7c-0.3,0.1-0.6,0.2-0.8,0.1l-71.6-25.3c-0.4-0.1-0.7-0.5-0.7-0.9c0-0.4,0.1-0.8,0.5-1l39.2-24.6
			c0.3-0.2,0.6-0.2,0.9-0.1l112,39.6c0.3,0.1,0.5,0.3,0.7,0.7l15,43.7C380,84.4,379.9,84.8,379.7,85.1z"/>
	</g>
	<path class="st16" d="M483.4,265.6c-0.9,0.4-2.5,0.8-4.7,1.2c-2,0.4-4.4,0.9-7,1.6c-2.1-2.1-4.8-3.4-7.5-3.4
		c-1.7,0-3.3,0.4-4.7,1.2c-2.2-1.8-5-2.8-8.1-2.8c-3.9,0-7.6,1.9-10,4.9c-1.2,1.7-2.3,3.7-2.7,4.3c-3.9,7.1-7.9,13.6-12.5,20.1
		c-6.4,4.2-12.5,8.3-17.7,11.9c-5.7,3.8-10.5,7.1-13.8,9.2c-7,4.4-16.2,8.5-26.4,12.1c0.8-2.9,1.3-5.9,1.4-9c0-0.2,0-0.4,0-0.6
		c0-0.2,0-0.5,0-0.7c-0.2-5.8-3.7-10.9-9.2-13c-1.6-0.7-3.3-1-5-1c-4.9,0-8.5,2.7-9.8,3.7c-7.6,5.4-15.6,10.4-24,15l0,0l-0.3,0.2
		c-5,2.7-10.2,5.3-15.7,7.8c-6.4,2.9-13,5.5-19.5,7.8l-0.2,0c-25.8-4.8-52.5-17.1-68.3-24.5l-1.1-0.5c-3.8-1.8-9-4.5-15.6-8.1
		c-24.8-13.3-66.4-35.7-102.1-38.7c-2.2-0.2-4.9-0.5-7.7-0.8c-5.9-0.7-12.5-1.4-17.2-1.4c-9.4,0-18.1,0.7-26.7,2
		c-1.3-0.5-2.6-0.7-4-0.7c-3,0-5.9,1.1-8.1,2.8c-1.4-0.8-3-1.2-4.7-1.2c-3.3,0-6.4,1.7-8.5,4.5c-6.6,1.8-13.3,3.9-20.3,6.2
		c-0.2,0.1-0.5,0-0.7-0.2c-0.2-0.2-0.2-0.5-0.1-0.8c6.4-11.2,21-22.3,40-30.6c22.5-9.7,49.9-15.1,77.1-15.1c3.6,0,7.2,0.1,10.8,0.3
		c37.8,1.9,83.8,18.9,105.9,27.1c2.1,0.8,4.1,1.5,5.7,2.1c32,11.6,66.5,22.4,102.1,22.4c29.4,0,58.2-5.2,85.5-15.5c0,0,0.1,0,0.1,0
		c11.8-4.5,23.1-6.8,33.6-6.8c13.7,0,21.7,4,22.1,5.7C484,265,483.8,265.4,483.4,265.6z"/>
	<path class="st19" d="M501.4,260.9c0,0.4-0.3,0.6-0.7,0.7c-0.1,0-0.2,0-0.3-0.1c-15.5-7.2-24.7-10.6-41.9-10.6
		c-11.2,0-22.3,2.9-30.8,5.4c-1.6,0.5-3.6,1.1-5.9,1.8c-12.4,3.8-33.1,10.2-52.7,13.2c-6.9,1-14.5,1.6-22.5,1.6
		c-47.3,0-98.4-17.4-127.7-32.3c-0.3-0.2-0.4-0.5-0.3-0.8c0.1-0.3,0.5-0.5,0.8-0.4c29.1,7.1,56.1,12.9,92,12.9
		c22.1,0,62.5-8.5,89.2-14.1c9.7-2,18-3.8,23.2-4.7c5.1-0.9,10.3-1.3,15.6-1.3c12.7,0,21.9,2.5,26.3,4c15.6,5.3,24.2,12.3,35.5,24.2
		C501.3,260.5,501.4,260.7,501.4,260.9z"/>
	<path class="st16" d="M20.6,297.3c-10,1.5-14.9,3.1-18.9,0.9c0,0,4.8-7.8,17.1-15.2c0,2.7,0.3,5.4,0.6,7.7
		C19.6,292.6,20,294.9,20.6,297.3z"/>
	<path class="st16" d="M410.9,312.5c-10.3,11.9-21.7,22.8-34.1,32.4c-7.8,6.1-16.2,11.8-24.8,16.9c-1,0.6-2,1.2-3.1,1.8
		c-8.3,4.8-17.2,9.1-26.3,12.9c-2.9,1.2-6,1.9-9.3,1.9c-1.9,0-3.7-0.2-5.5-0.6l0.3-0.3c8.4-4.4,16.5-9.3,24.2-14.4
		c3.4-2.3,6.8-4.7,10.1-7.2c1.6-1.2,3.1-2.4,4.6-3.6c3.1-2.4,6.2-5,9.4-7.8l0.5-0.4c0.3-0.3,0.6-0.5,0.9-0.8c2.2-2,4.1-4.2,5.7-6.6
		C385,329.3,400.7,319.5,410.9,312.5z"/>
	<path class="st16" d="M270.7,342.8c-8.2,4.7-15.3,11.2-20.9,19l-2,3.2c0,0-0.1,0.2-0.3,0.4c-0.1-0.1-0.2-0.3-0.3-0.4l-2-3.2
		c-7.8-10.8-18.4-18.9-30.8-23.6l-1.8-0.6c0,0-1.3-0.4-1.7-0.6l-2.4-0.8c-6.5-2.2-13-4.9-19.5-7.8c-5.4-2.5-10.7-5.1-15.7-7.8
		l-0.4-0.2l-0.1,0c-8.3-4.5-16.3-9.5-24-15c-1.2-0.9-4.8-3.6-9.7-3.6c-1.7,0-3.4,0.3-5,1c-5.4,2.1-9,7.2-9.1,13c0,0.3,0,0.5,0,0.7
		c-19.7-9.9-37.8-17.4-53.1-19.2c-0.1,0-0.1,0-0.2,0c-5.9-8-10.9-15.9-15.7-24.5c-0.2-0.3-0.5-1-1-1.8c7.9-1,17-1.4,27.1-0.8
		C139,273.7,209.2,327.6,270.7,342.8z"/>
	<path class="st16" d="M187.1,377.7L187.1,377.7c-1.8,0.5-3.6,0.7-5.5,0.7c-3.2,0-6.3-0.6-9.3-1.9c-9-3.8-17.9-8.1-26.3-12.9
		c-1-0.6-2-1.2-3.1-1.8c-8.6-5.1-16.9-10.7-24.8-16.9c-13.8-10.7-26.3-22.8-37.4-36.2c0.9,0.2,1.8,0.4,2.8,0.6
		c12.8,2.9,27.9,11.4,44.9,21.9c2.1,4.6,5.1,8.7,8.8,12.1c0.3,0.3,0.6,0.5,0.9,0.8l0.4,0.4c3.2,2.8,6.4,5.4,9.4,7.8
		c1.5,1.2,3.1,2.4,4.6,3.6c3.2,2.4,6.7,4.9,10.1,7.2c7.7,5.2,15.8,10,24.2,14.4L187.1,377.7z"/>
	<g class="st6">
		<path class="st20" d="M311.5,443.5c-19.4,5.4-34.7,9.7-60,9.7c-26.2,0-46.7-3.6-53.1-5.5c0,0-0.1,0-0.1,0
			c-3.9-0.9-11.2-2.9-8.9-2.2c-19.1-5.4-39.2-12.8-56.1-22.5c-19.4-11.1-42.7-27.5-58.3-43.3c-22.7-23-35-43.1-44.3-70.4
			c-0.6-1.9-3.9-13.1-4.7-19.5c-0.7-5.2-0.8-11.1,0.5-14.3c0.8-2,2.5-3.7,4.2-3.7c1.5,0,2.7,1.1,3.2,2.4c0,0,0,0,0,0
			c0.1,0.5,0.2,1,0.3,1.5v0.1c2.3,13.8,7.8,32.5,10.8,40.3c3.5,9.1,12.4,26,17.8,33.4c2,2.7,7.4,9,14.5,16.5
			c-11.8-14.6-21.6-30.7-28.7-48.7c-0.1-0.2-0.1-0.3-0.2-0.5v0c-4.8-12.3-8.5-25.2-11-38.5c0,0,0,0,0,0c-0.1-0.6-0.3-2-0.3-2
			c0-3.5,2.8-6.3,6.3-6.3c2,0,3.7,1,4.7,2.3c1,1.4,2.1,3.4,2.1,3.4c7.1,12.9,14.4,23.6,23.6,34.9c0.1,0.1,0.1,0.2,0.2,0.3
			c11.8,14.5,25.2,27.6,40,39.1c8.1,6.3,16.6,12.1,25.5,17.3c1.1,0.6,2.1,1.2,3.2,1.8c8.7,5,17.7,9.4,27,13.3
			c3.6,1.5,7.7,2.4,11.9,2.4c3.1,0,6-0.5,8.8-1.3c0,0,0,0,0,0c0.5-0.1,0.9-0.3,1.4-0.5c0,0,0.1,0,0.1,0c2-1,3.4-3,3.4-5.4
			c0-1.9-0.9-3.5-2.2-4.6c0,0,0,0,0,0c-0.7-0.5-1.4-0.9-2.2-1.1c0,0,0,0,0,0c-8.4-4.4-16.6-9.2-24.4-14.5c-3.3-2.3-6.6-4.6-9.9-7
			c-1.5-1.1-3-2.3-4.5-3.5c-3.1-2.4-6.1-5-9.1-7.6c0,0,0,0,0,0c-0.4-0.4-0.8-0.7-1.3-1.1c-5.9-5.4-9.7-13.1-10-21.7
			c0-0.1,0-0.1,0-0.2c0-0.1,0-0.3,0-0.4c0.1-3.3,2.1-6,5-7.2c4-1.7,7.7,1.4,8.4,1.9c7.9,5.6,16.2,10.8,24.8,15.5
			c0.1,0,0.1,0.1,0.2,0.1c5.2,2.9,10.6,5.5,16.1,8c6.9,3.1,13.9,5.9,21.1,8.3c0,0,0,0,0.1,0c0.9,0.3,1.8,0.6,2.7,0.9
			c0.5,0.2,0.9,0.3,1.4,0.5c0,0,0.1,0,0.1,0c11.8,4.4,21.8,12.3,28.8,22.5c0,0,0,0,0,0c1.2,2,2.4,4,3.6,6c0,0,0,0,0,0.1c0,0,0,0,0,0
			c4.9,7.9,10.3,15.4,16.1,22.6c1.5,2,3.1,3.9,4.8,5.8h0C279.3,418.1,293.2,431.1,311.5,443.5z"/>
	</g>
	<path class="st16" d="M469,289.7c-0.8,6.4-4.1,17.6-4.7,19.5c-9.3,27.3-21.6,47.4-44.3,70.4c-15.6,15.8-38.8,32.2-58.3,43.3
		c-12.8,7.4-27.6,13.4-42.3,18.3c-16-11.5-30.5-24.9-43.2-39.9h0c-1.6-1.9-3.2-3.8-4.8-5.8c-5.8-7.2-11.1-14.8-16.1-22.6
		c0,0,0,0,0,0c0,0,0,0,0-0.1c-0.8-1.2-1.5-2.5-2.3-3.7c0.5-0.8,0.9-1.5,1.4-2.3c0,0,0,0,0,0c7-10.2,17.1-18.1,28.8-22.5
		c0,0,0.1,0,0.1,0c0.5-0.2,0.9-0.3,1.4-0.5c0.9-0.3,1.8-0.6,2.7-0.9c0,0,0,0,0.1,0c7.2-2.5,14.2-5.3,21.1-8.4
		c5.5-2.5,10.9-5.1,16.1-8c0.1,0,0.1-0.1,0.2-0.1c8.6-4.7,16.9-9.9,24.8-15.5c0.8-0.5,4.4-3.6,8.4-1.9c2.9,1.1,5,3.9,5,7.1
		c0,0.1,0,0.3,0,0.4c0,0.1,0,0.1,0,0.2c-0.2,8.6-4,16.3-9.9,21.7c-0.4,0.4-0.8,0.7-1.3,1.1c0,0,0,0,0,0c-3,2.6-6,5.1-9.1,7.6
		c-1.5,1.2-3,2.3-4.5,3.5c-3.2,2.4-6.5,4.8-9.8,7c-7.8,5.3-15.9,10.1-24.4,14.5c0,0,0,0,0,0c-0.8,0.2-1.6,0.6-2.2,1.1c0,0,0,0,0,0
		c-1.3,1.1-2.2,2.8-2.2,4.6c0,2.4,1.4,4.4,3.4,5.4c0,0,0.1,0,0.1,0c0.4,0.2,0.9,0.4,1.4,0.5c0,0,0,0,0,0c2.8,0.8,5.7,1.3,8.8,1.3
		c4.2,0,8.2-0.9,11.9-2.4c9.3-3.9,18.3-8.3,27-13.3c1.1-0.6,2.1-1.2,3.2-1.8c8.9-5.3,17.4-11.1,25.5-17.4
		c14.8-11.5,28.2-24.6,40-39.1c0.1-0.1,0.1-0.2,0.2-0.3c9.2-11.3,16.5-22,23.6-34.9c0,0,1.1-2.1,2.1-3.4c1-1.3,2.7-2.3,4.7-2.3
		c3.5,0,6.3,2.8,6.3,6.3c0,0-0.2,1.4-0.3,2c0,0,0,0,0,0c-2.5,13.3-6.2,26.2-10.9,38.5v0c-0.1,0.2-0.1,0.3-0.2,0.5
		c-7,18-16.8,34.1-28.6,48.7c7.2-7.6,12.5-13.8,14.5-16.5c5.4-7.4,14.3-24.4,17.8-33.4c3-7.8,8.5-26.6,10.8-40.3v-0.1
		c0.1-0.5,0.2-1,0.3-1.5c0,0,0,0,0,0c0.5-1.4,1.7-2.4,3.2-2.4c1.7,0,3.4,1.7,4.2,3.7C469.8,278.6,469.7,284.5,469,289.7z"/>
	<rect x="525.8" y="126.9" class="st7" width="702.5" height="272.4"/>
	<text transform="matrix(1 0 0 1 525.8154 223.0574)" class="st6"><tspan x="0" y="0" class="st20 st9 st10 st11">BACK</tspan><tspan x="365.3" y="0" class="st20 st9 st10 st11">-</tspan><tspan x="0" y="123" class="st20 st9 st10 st11">YARD </tspan></text>
	<g>
		<path class="st16" d="M535.6,126.9h36.1c9.2,0.1,16,2.5,20.6,7.1c4.6,4.7,7,10.9,7,18.7c0.1,4-0.8,7.7-2.7,11.3
			c-1,1.7-2.4,3.3-4.2,4.9c-1.8,1.6-4.1,3.1-6.8,4.4v0.3c5.1,1.4,8.9,4.1,11.5,8.2c2.4,4.3,3.6,8.9,3.6,13.9
			c-0.1,8.3-2.6,14.9-7.5,19.7c-4.9,5.1-11,7.6-18.3,7.6h-39.2V126.9z M549.7,139.9v27.6h20.4c5.2,0,8.9-1.4,11.4-4.2
			c2.5-2.6,3.7-5.8,3.7-9.7c0-3.9-1.2-7.2-3.7-9.9c-2.4-2.5-6.2-3.8-11.4-3.9H549.7z M549.7,180.4v29h21.8c5.2-0.1,9.1-1.6,11.5-4.4
			c2.4-2.8,3.6-6.2,3.6-10c0-4-1.2-7.4-3.6-10.2c-2.4-2.8-6.3-4.2-11.5-4.3H549.7z"/>
		<path class="st16" d="M675.8,201.6h-35.3l-7.2,21.5h-14.9l33.8-96.1h11.8l33.8,96.1H683L675.8,201.6z M671.8,188.7l-13.5-42h-0.3
			l-13.5,42H671.8z"/>
		<path class="st16" d="M780.9,196.2c-2,8.9-5.9,15.8-11.7,20.5c-5.9,4.7-12.9,7.1-21,7.1c-7.3-0.2-13.4-2-18.3-5.5
			c-5-3.4-8.6-7.3-10.9-11.7c-0.7-1.5-1.3-2.8-1.9-4.2c-0.5-1.4-0.9-3.1-1.3-5.1c-0.6-3.9-1-11.3-1-22.3c0-11.2,0.3-18.6,1-22.4
			c0.7-3.8,1.7-6.8,3.1-9.2c2.3-4.4,5.9-8.4,10.9-11.9c4.9-3.5,11-5.3,18.3-5.4c9,0.1,16.3,2.8,22,8.2c5.7,5.4,9.2,12.2,10.7,20.2
			h-15c-1.2-3.9-3.2-7.2-6.3-9.9c-3.2-2.6-7-3.9-11.5-4c-3.3,0.1-6.2,0.8-8.6,2c-2.4,1.3-4.4,3-5.9,5c-1.8,2.1-3,4.7-3.6,8
			c-0.7,3.4-1,9.9-1,19.4c0,9.5,0.3,15.9,1,19.2c0.6,3.3,1.8,6.1,3.6,8.1c1.5,2,3.5,3.6,5.9,4.8c2.4,1.5,5.2,2.2,8.6,2.2
			c7.9,0,13.9-4.4,17.8-13.1H780.9z"/>
		<path class="st16" d="M803.3,126.9h14.1v49.5h0.3l38.3-49.5h16.7l-29.8,37.9l33,58.2h-16.7l-25.4-47l-16.4,17.7v29.3h-14.1V126.9z
			"/>
		<path class="st16" d="M914.7,183.5l-28-56.6h14.9l19.7,42.6l19.7-42.6H956l-28,56.6v39.6h-13.3V183.5z"/>
		<path class="st16" d="M1013.8,201.6h-35.3l-7.1,21.5h-14.9l33.8-96.1h11.8l33.8,96.1H1021L1013.8,201.6z M1009.8,188.7l-13.5-42
			H996l-13.5,42H1009.8z"/>
		<path class="st16" d="M1058.5,126.9h36.4c7.8,0,14.1,2.1,19,6.3c5.9,4.8,9,11.6,9.2,20.5c-0.2,13.1-6.2,21.9-18,26.6l21.5,42.6
			H1110l-19.3-41.1h-18.1v41.1h-14.1V126.9z M1072.6,169.1h21.4c5.3-0.1,9.3-1.7,11.9-4.8c2.6-2.9,3.9-6.4,3.9-10.6
			c-0.1-5-1.6-8.7-4.7-10.9c-2.4-2-5.8-3-10.4-3h-22.1V169.1z"/>
		<path class="st16" d="M1151,126.9h32.6c12.6,0.1,22.1,5.5,28.4,16.2c2.3,3.6,3.7,7.4,4.3,11.3c0.5,4,0.7,10.8,0.7,20.5
			c0,10.3-0.4,17.5-1.1,21.6c-0.3,2.1-0.9,3.9-1.5,5.5c-0.7,1.6-1.6,3.2-2.6,4.9c-2.7,4.5-6.5,8.3-11.4,11.2
			c-4.8,3.2-10.7,4.7-17.7,4.7H1151V126.9z M1165.1,209.4h16.9c7.9,0,13.7-2.8,17.3-8.4c1.6-2.1,2.6-4.7,3-7.9
			c0.4-3.1,0.6-9,0.6-17.6c0-8.4-0.2-14.4-0.6-18c-0.5-3.6-1.7-6.5-3.6-8.8c-3.9-5.6-9.5-8.3-16.6-8.1h-16.9V209.4z"/>
		<path class="st16" d="M535.6,249.9h36.1c9.2,0.1,16,2.5,20.6,7.1c4.6,4.7,7,10.9,7,18.7c0.1,4-0.8,7.7-2.7,11.3
			c-1,1.7-2.4,3.3-4.2,4.9c-1.8,1.6-4.1,3.1-6.8,4.4v0.3c5.1,1.4,8.9,4.1,11.5,8.2c2.4,4.3,3.6,8.9,3.6,13.9
			c-0.1,8.3-2.6,14.9-7.5,19.7c-4.9,5.1-11,7.6-18.3,7.6h-39.2V249.9z M549.7,262.9v27.6h20.4c5.2,0,8.9-1.4,11.4-4.2
			c2.5-2.6,3.7-5.8,3.7-9.7c0-3.9-1.2-7.2-3.7-9.9c-2.4-2.5-6.2-3.8-11.4-3.9H549.7z M549.7,303.4v29h21.8c5.2-0.1,9.1-1.6,11.5-4.4
			c2.4-2.8,3.6-6.2,3.6-10c0-4-1.2-7.4-3.6-10.2c-2.4-2.8-6.3-4.2-11.5-4.3H549.7z"/>
		<path class="st16" d="M626.4,249.9h14.1v62c0.1,6.6,1.9,11.5,5.5,15c3.5,3.6,8,5.4,13.5,5.4c5.5,0,10-1.8,13.6-5.4
			c3.5-3.4,5.3-8.4,5.4-15v-62h14.1v63.5c-0.2,10.1-3.3,18.1-9.5,24.1c-6.2,6.1-14.1,9.2-23.6,9.3c-9.3-0.1-17.1-3.2-23.4-9.3
			c-6.4-5.9-9.6-13.9-9.7-24V249.9z"/>
		<path class="st16" d="M720.1,298c0-11.2,0.3-18.7,1-22.5c0.7-3.8,1.7-6.8,3.1-9.2c2.3-4.4,5.9-8.4,10.8-11.8
			c4.9-3.5,11-5.3,18.3-5.4c7.4,0.1,13.6,1.9,18.5,5.4c4.9,3.5,8.4,7.4,10.6,11.9c1.6,2.3,2.7,5.4,3.3,9.2
			c0.6,3.8,0.8,11.3,0.8,22.4c0,11-0.3,18.4-0.8,22.3c-0.6,3.9-1.7,7-3.3,9.3c-2.2,4.4-5.7,8.3-10.6,11.7
			c-4.9,3.5-11.1,5.4-18.5,5.5c-7.3-0.2-13.4-2-18.3-5.5c-5-3.4-8.6-7.3-10.8-11.7c-0.7-1.5-1.3-2.8-1.8-4.2
			c-0.5-1.4-0.9-3.1-1.3-5.1C720.4,316.4,720.1,309,720.1,298z M734.2,298c0,9.5,0.3,15.9,1,19.2c0.6,3.3,1.8,6.1,3.6,8.1
			c1.5,2,3.5,3.6,5.9,4.8c2.4,1.5,5.2,2.2,8.6,2.2c3.4,0,6.3-0.7,8.8-2.2c2.3-1.2,4.2-2.8,5.6-4.8c1.8-2.1,3.1-4.8,3.8-8.1
			c0.6-3.3,1-9.8,1-19.2c0-9.5-0.3-15.9-1-19.4c-0.7-3.3-1.9-5.9-3.8-8c-1.4-2-3.3-3.6-5.6-5c-2.5-1.3-5.4-2-8.8-2
			c-3.3,0.1-6.2,0.8-8.6,2c-2.4,1.3-4.4,3-5.9,5c-1.8,2.1-3,4.7-3.6,8C734.5,282.1,734.2,288.5,734.2,298z"/>
		<path class="st16" d="M827.9,306.5l-28-56.6h14.9l19.7,42.6l19.7-42.6h14.9l-28,56.6v39.6h-13.3V306.5z"/>
		<path class="st16" d="M890.5,322.8c7.4,6.3,16.2,9.5,26.5,9.6c12.1-0.2,18.2-4.6,18.4-13.4c0.1-7.2-4-11.5-12.1-12.9
			c-3.7-0.5-7.9-1.1-12.3-1.8c-8-1.4-14.1-4.4-18.3-9.2c-4.3-4.9-6.5-10.8-6.5-17.8c0-8.4,2.7-15.2,8.1-20.3
			c5.2-5.1,12.7-7.7,22.3-7.8c11.6,0.3,21.6,3.6,30.2,9.9l-7.9,12c-7-4.8-14.7-7.2-23.1-7.4c-4.3,0-8,1.1-10.9,3.4
			c-3,2.3-4.6,5.8-4.7,10.4c0,2.8,1,5.3,3.1,7.5c2.1,2.3,5.4,3.9,10,4.8c2.6,0.4,6,0.9,10.5,1.5c8.7,1.2,15.2,4.5,19.3,9.7
			c4.1,5.1,6.2,11.1,6.2,17.9c-0.5,18.4-11.4,27.7-32.7,28c-13.8,0-25.6-4.4-35.5-13.1L890.5,322.8z"/>
	</g>
</g>
<g id="guides">
</g>
</svg>
