<?xml version="1.0" encoding="utf-8"?>
<svg version="1.1" width="32px" height="32px" xmlns="http://www.w3.org/2000/svg" xmlns:xlink="http://www.w3.org/1999/xlink" x="0px" y="0px" viewBox="-23.0375 -25 278.375 312.1125" style="enable-background:new -23.0375 -25 278.375 312.1125;" xml:space="preserve">
    <style type="text/css">
        .st0 {
            fill: #FFFFFF;
            animation: pulse 1.5s infinite;
            transform-origin: 50% 50%;
        }
        @keyframes pulse {
            0% {
                transform: scale(0.9);
                opacity: 1;
            }
            70% {
                transform: scale(1.4);
                opacity: 0;
            }
            100% {
                transform: scale(0.9);
                opacity: 0;
            }
        }
        .st1 { fill: #E4C43C; }
        .st2 { fill: #1C141C; }
        .st3 { fill: #FFFFFF; }
        .st4 { fill: #281F28; }
        .st5 { fill: #4F4F4F; stroke: #FFFFFF; stroke-miterlimit: 10; }
    </style>

<g id="Layer_2">
	<path class="st0" d="M87.04,9.42L20.59,57.45C3.08,70.1-4.25,92.62,2.46,113.15l25.28,77.39c6.68,20.44,25.74,34.27,47.24,34.27
		h82.34c21.5,0,40.57-13.83,47.24-34.27l25.28-77.39c6.71-20.54-0.62-43.05-18.13-55.71L145.26,9.42
		C127.88-3.14,104.41-3.14,87.04,9.42z"/>
	<path class="st1" d="M87.04,9.42L20.59,57.45C3.08,70.1-4.25,92.62,2.46,113.15l25.28,77.39c6.68,20.44,25.74,34.27,47.24,34.27
		h82.34c21.5,0,40.57-13.83,47.24-34.27l25.28-77.39c6.71-20.54-0.62-43.05-18.13-55.71L145.26,9.42
		C127.88-3.14,104.41-3.14,87.04,9.42z"/>
</g>
<g id="Layer_3">
</g>
<g id="Layer_4">
	<g>
		<g>
			<path class="st2" d="M123.96,91.52l-40.22,30.87c-3.44,2.64-8.36,1.99-11-1.45l-41.6-54.19c-2.64-3.44-1.99-8.36,1.45-11
				L72.8,24.87c3.44-2.64,8.36-1.99,11,1.45l41.6,54.19C128.04,83.95,127.4,88.88,123.96,91.52z"/>
			
				<rect x="67.42" y="42.8" transform="matrix(0.7932 -0.6089 0.6089 0.7932 -39.6498 59.5085)" class="st3" width="0.76" height="90.67"/>
			
				<rect x="95.33" y="22.92" transform="matrix(0.7932 -0.6089 0.6089 0.7932 -21.7694 72.388)" class="st3" width="0.76" height="90.67"/>
		</g>
		<g>
			<path class="st2" d="M147.12,120.97l-42.05-28.34c-3.59-2.42-4.54-7.3-2.12-10.89l38.18-56.66c2.42-3.59,7.3-4.54,10.89-2.12
				l42.05,28.34c3.59,2.42,4.54,7.3,2.12,10.89l-38.18,56.66C155.59,122.44,150.71,123.39,147.12,120.97z"/>
			
				<rect x="132.12" y="21.31" transform="matrix(0.8293 0.5589 -0.5589 0.8293 59.8693 -62.6675)" class="st3" width="0.76" height="90.67"/>
			
				<rect x="159.83" y="41.46" transform="matrix(0.8293 0.5589 -0.5589 0.8293 75.8615 -74.7191)" class="st3" width="0.76" height="90.67"/>
		</g>
		<g>
			<path class="st2" d="M124.96,147.78l15.74-48.2c1.35-4.12,5.78-6.37,9.9-5.02l64.94,21.21c4.12,1.35,6.37,5.78,5.02,9.9
				l-15.74,48.2c-1.35,4.12-5.78,6.37-9.9,5.02l-64.94-21.21C125.86,156.33,123.61,151.9,124.96,147.78z"/>
			
				<rect x="172.83" y="73.51" transform="matrix(-0.3105 0.9506 -0.9506 -0.3105 339.946 -8.9102)" class="st3" width="0.76" height="90.67"/>
			
				<rect x="161.04" y="105.68" transform="matrix(-0.3105 0.9506 -0.9506 -0.3105 355.0853 44.4607)" class="st3" width="0.76" height="90.67"/>
		</g>
		<g>
			<path class="st2" d="M92,137.18l50.7-0.8c4.33-0.07,7.9,3.39,7.97,7.72l1.08,68.31c0.07,4.33-3.39,7.9-7.72,7.97l-50.7,0.8
				c-4.33,0.07-7.9-3.39-7.97-7.72l-1.08-68.31C84.21,140.82,87.67,137.25,92,137.18z"/>
			
				<rect x="134.69" y="128.05" transform="matrix(-0.9999 0.0158 -0.0158 -0.9999 272.8699 344.6028)" class="st3" width="0.76" height="90.67"/>
			
				<rect x="100.43" y="127.38" transform="matrix(-0.9999 0.0158 -0.0158 -0.9999 204.3419 343.7997)" class="st3" width="0.76" height="90.67"/>
		</g>
		<g>
			<path class="st2" d="M91.07,102.39l16.78,47.85c1.43,4.09-0.72,8.57-4.81,10l-64.47,22.6c-4.09,1.43-8.57-0.72-10-4.81
				l-16.78-47.85c-1.43-4.09,0.72-8.57,4.81-10l64.47-22.6C85.16,96.15,89.64,98.3,91.07,102.39z"/>
			
				<rect x="69.95" y="109.36" transform="matrix(-0.3308 -0.9437 0.9437 -0.3308 -52.3817 272.2355)" class="st3" width="0.76" height="90.67"/>
			
				<rect x="59.77" y="76.64" transform="matrix(-0.3308 -0.9437 0.9437 -0.3308 -35.0572 219.0813)" class="st3" width="0.76" height="90.67"/>
		</g>
		<path class="st4" d="M105.93,58.41L61.08,90.82c-6.68,4.83-9.47,13.41-6.91,21.24l17.09,52.32c2.55,7.79,9.81,13.07,18.01,13.07
			h55.51c8.2,0,15.47-5.27,18.01-13.07l17.09-52.32c2.56-7.83-0.24-16.41-6.91-21.24l-44.84-32.41
			C121.5,53.62,112.55,53.62,105.93,58.41z"/>
		<circle class="st5" cx="115.88" cy="121.97" r="37.9"/>
	</g>
</g>
</svg>
