<?xml version="1.0" encoding="utf-8"?>
<!-- Generator: Adobe Illustrator 27.8.1, SVG Export Plug-In . SVG Version: 6.00 Build 0)  -->
<svg version="1.1" width="32px" height="31px" xmlns="http://www.w3.org/2000/svg" xmlns:xlink="http://www.w3.org/1999/xlink" x="0px" y="0px"
	 viewBox="0 0 324.8 315" style="enable-background:new 0 0 324.8 315;" xml:space="preserve">
<style type="text/css">
	  .st0 {
            fill: #FFFFFF;
            animation: pulse 1.5s infinite;
            transform-origin: 50% 50%;
        }
        @keyframes pulse {
            0% {
                transform: scale(0.9);
                opacity: 1;
            }
            70% {
                transform: scale(1.4);
                opacity: 0;
            }
            100% {
                transform: scale(0.9);
                opacity: 0;
            }
        }
	.st1{fill:#E4C43C;}
	.st2{fill:#1C141C;}
	.st3{fill:#FFFFFF;}
	.st4{fill:#281F28;}
	.st5{fill:#4F4F4F;stroke:#FFFFFF;stroke-miterlimit:10;}
</style>
<g id="Layer_2">
	<path class="st0" d="M133.29,54.51l-66.45,48.03C49.33,115.2,42,137.71,48.71,158.25l25.28,77.39
		c6.68,20.44,25.74,34.27,47.24,34.27h82.34c21.5,0,40.57-13.83,47.24-34.27l25.28-77.39c6.71-20.54-0.62-43.05-18.13-55.71
		l-66.45-48.03C174.14,41.95,150.66,41.95,133.29,54.51z"/>
	<path class="st1" d="M133.29,54.51l-66.45,48.03C49.33,115.2,42,137.71,48.71,158.25l25.28,77.39
		c6.68,20.44,25.74,34.27,47.24,34.27h82.34c21.5,0,40.57-13.83,47.24-34.27l25.28-77.39c6.71-20.54-0.62-43.05-18.13-55.71
		l-66.45-48.03C174.14,41.95,150.66,41.95,133.29,54.51z"/>
</g>
<g id="Layer_3">
</g>
<g id="Layer_4">
	<g>
		<g>
			<path class="st2" d="M170.21,136.61l-40.22,30.87c-3.44,2.64-8.36,1.99-11-1.45l-41.6-54.19c-2.64-3.44-1.99-8.36,1.45-11
				l40.22-30.87c3.44-2.64,8.36-1.99,11,1.45l41.6,54.19C174.29,129.04,173.65,133.97,170.21,136.61z"/>
			
				<rect x="113.67" y="87.9" transform="matrix(0.7932 -0.6089 0.6089 0.7932 -57.5448 96.9952)" class="st3" width="0.76" height="90.67"/>
			
				<rect x="141.58" y="68.01" transform="matrix(0.7932 -0.6089 0.6089 0.7932 -39.6644 109.8747)" class="st3" width="0.76" height="90.67"/>
		</g>
		<g>
			<path class="st2" d="M193.37,166.06l-42.05-28.34c-3.59-2.42-4.54-7.3-2.12-10.89l38.18-56.66c2.42-3.59,7.3-4.54,10.89-2.12
				l42.05,28.34c3.59,2.42,4.54,7.3,2.12,10.89l-38.18,56.66C201.84,167.54,196.97,168.49,193.37,166.06z"/>
			
				<rect x="178.37" y="66.41" transform="matrix(0.8293 0.5589 -0.5589 0.8293 92.9675 -80.8164)" class="st3" width="0.76" height="90.67"/>
			
				<rect x="206.09" y="86.55" transform="matrix(0.8293 0.5589 -0.5589 0.8293 108.9597 -92.868)" class="st3" width="0.76" height="90.67"/>
		</g>
		<g>
			<path class="st2" d="M171.21,192.87l15.74-48.2c1.35-4.12,5.78-6.37,9.9-5.02l64.94,21.21c4.12,1.35,6.37,5.78,5.02,9.9
				l-15.74,48.2c-1.35,4.12-5.78,6.37-9.9,5.02l-64.94-21.21C172.12,201.42,169.87,196.99,171.21,192.87z"/>
			
				<rect x="219.08" y="118.6" transform="matrix(-0.3105 0.9506 -0.9506 -0.3105 443.4217 6.2175)" class="st3" width="0.76" height="90.67"/>
			
				<rect x="207.29" y="150.78" transform="matrix(-0.3105 0.9506 -0.9506 -0.3105 458.561 59.5884)" class="st3" width="0.76" height="90.67"/>
		</g>
		<g>
			<path class="st2" d="M138.25,182.28l50.7-0.8c4.33-0.07,7.9,3.39,7.97,7.72l1.08,68.31c0.07,4.33-3.39,7.9-7.72,7.97l-50.7,0.8
				c-4.33,0.07-7.9-3.39-7.97-7.72l-1.08-68.31C130.46,185.91,133.92,182.35,138.25,182.28z"/>
			
				<rect x="180.94" y="173.14" transform="matrix(-0.9999 0.0158 -0.0158 -0.9999 366.0805 434.0517)" class="st3" width="0.76" height="90.67"/>
			
				<rect x="146.68" y="172.47" transform="matrix(-0.9999 0.0158 -0.0158 -0.9999 297.5524 433.2486)" class="st3" width="0.76" height="90.67"/>
		</g>
		<g>
			<path class="st2" d="M137.32,147.49l16.78,47.85c1.43,4.09-0.72,8.57-4.81,10l-64.47,22.6c-4.09,1.43-8.57-0.72-10-4.81
				l-16.78-47.85c-1.43-4.09,0.72-8.57,4.81-10l64.47-22.6C131.41,141.24,135.89,143.4,137.32,147.49z"/>
			
				<rect x="116.2" y="154.45" transform="matrix(-0.3308 -0.9437 0.9437 -0.3308 -33.3826 375.8944)" class="st3" width="0.76" height="90.67"/>
			
				<rect x="106.02" y="121.73" transform="matrix(-0.3308 -0.9437 0.9437 -0.3308 -16.0581 322.7402)" class="st3" width="0.76" height="90.67"/>
		</g>
		<path class="st4" d="M152.18,103.5l-44.84,32.41c-6.68,4.83-9.47,13.41-6.91,21.24l17.09,52.32c2.55,7.79,9.81,13.07,18.01,13.07
			h55.51c8.2,0,15.47-5.27,18.01-13.07l17.09-52.32c2.56-7.83-0.24-16.41-6.91-21.24l-44.84-32.41
			C167.75,98.71,158.8,98.71,152.18,103.5z"/>
		<circle class="st5" cx="162.13" cy="167.06" r="37.9"/>
	</g>
</g>
</svg>