<?xml version="1.0" encoding="utf-8"?>
<svg version="1.1" width="32px" height="32px" id="Layer_1" xmlns="http://www.w3.org/2000/svg" xmlns:xlink="http://www.w3.org/1999/xlink" x="0px" y="0px" viewBox="0 0 32 32" style="enable-background:new 0 0 32 32;" xml:space="preserve">
<style type="text/css">
	.st0{
        fill:#FFFFFF;
        animation: pulse 1.5s infinite;
        transform-origin: 50% 50%;
    }
	.st1{fill:#FFC846;}
	.st2{stroke:#FFC846;stroke-width:0.5;stroke-miterlimit:10;}

    @keyframes pulse {
    0% {
        transform: scale(0.9);
        opacity: 1;
    }
    70% {
        transform: scale(1.4);
        opacity: 0;
    }
    100% {
        transform: scale(0.9);
        opacity: 0;
    }
}

</style>
<g>
	<path class="st0" d="M18.4,3.6c-1.3-1-3.5-1-4.9,0l-8.9,6.5c-1.3,1-2,3-1.5,4.6l3.4,10.5c0.5,1.6,2.3,2.9,3.9,2.9h11.1 c1.6,0,3.4-1.3,3.9-2.9l3.4-10.5c0.5-1.6-0.2-3.6-1.5-4.6L18.4,3.6z"/>
</g>
<g>
	<path class="st1" d="M18.4,3.6c-1.3-1-3.5-1-4.9,0l-8.9,6.5c-1.3,1-2,3-1.5,4.6l3.4,10.5c0.5,1.6,2.3,2.9,3.9,2.9h11.1 c1.6,0,3.4-1.3,3.9-2.9l3.4-10.5c0.5-1.6-0.2-3.6-1.5-4.6L18.4,3.6z"/>
</g>
<g>
	<rect x="15.9" y="15.3" transform="matrix(0.9511 0.309 -0.309 0.9511 6.5354 -5.7148)" width="10.8" height="5"/>
	<rect x="10.6" y="19.7" transform="matrix(-1.836970e-16 1 -1 -1.836970e-16 38.1977 6.1977)" width="10.8" height="5"/>
	<rect x="5.3" y="15.3" transform="matrix(-0.9511 0.309 -0.309 -0.9511 26.3522 31.3742)" width="10.8" height="5"/>
	<rect x="7.1" y="10" transform="matrix(-0.5878 -0.809 0.809 -0.5878 9.7006 29.8736)" width="10.8" height="5"/>
	<rect x="14.1" y="10" transform="matrix(0.5878 -0.809 0.809 0.5878 -2.0305 20.9458)" width="10.8" height="5"/>
	<circle class="st2" cx="16" cy="17" r="5.3"/>
</g>
</svg>
